<svg width="13" height="13" viewBox="0 0 13 13" fill="none" xmlns="http://www.w3.org/2000/svg">
<g clip-path="url(#clip0_71_650)">
<path d="M13 6.11854V6.88033C12.9895 6.9719 12.9791 7.06314 12.9689 7.15471C12.8133 8.55366 12.2783 9.78727 11.3354 10.8336C10.3344 11.9445 9.09349 12.6376 7.61752 12.899C7.3729 12.9422 7.12511 12.967 6.87858 13.0001H6.11642C5.89884 12.9727 5.67999 12.953 5.464 12.9168C4.10605 12.6901 2.92241 12.1057 1.94839 11.1331C0.487689 9.67345 -0.155186 7.89997 0.0315371 5.84606C0.156867 4.46747 0.696678 3.2488 1.61884 2.21326C2.84352 0.838163 4.38502 0.097359 6.22426 0.00769943C7.50682 -0.0549351 8.71273 0.244248 9.81048 0.913515C11.4983 1.94237 12.5337 3.4332 12.8986 5.3806C12.9444 5.62446 12.9666 5.87245 13 6.11854ZM6.50291 11.9903C9.5366 11.9833 11.9929 9.52401 11.9901 6.49721C11.9872 3.46627 9.52929 1.00985 6.49846 1.00858C3.46603 1.00731 0.993781 3.48248 1.00491 6.50802C1.01637 9.5415 3.47908 11.9973 6.50291 11.9903Z" fill="black"/>
<path d="M5.99197 5.94869C5.99197 5.78622 5.99197 5.64315 5.99197 5.50008C5.99197 4.98406 5.98879 4.46772 5.99356 3.9517C5.99611 3.68145 6.1647 3.48782 6.41822 3.44331C6.64471 3.40357 6.87755 3.52852 6.95899 3.74726C6.98921 3.82834 7.00098 3.92022 7.00161 4.00734C7.00511 4.6038 7.00352 5.20026 7.00352 5.79672C7.00352 5.84218 7.00352 5.88765 7.00352 5.94869C7.06491 5.94869 7.11422 5.94869 7.16352 5.94869C7.75582 5.94869 8.34844 5.94965 8.94073 5.94806C9.14304 5.94742 9.31959 6.00115 9.43442 6.17825C9.53907 6.33944 9.55084 6.51272 9.46082 6.68441C9.36603 6.86532 9.21048 6.95561 9.00722 6.95625C8.38947 6.95784 7.77141 6.95689 7.15366 6.9572C7.10818 6.9572 7.06237 6.9572 7.00352 6.9572C7.00352 7.01412 7.00352 7.05926 7.00352 7.10473C7.00352 7.71391 7.00607 8.32308 7.00257 8.93226C7.00034 9.31951 6.67079 9.56623 6.32756 9.44383C6.11762 9.36911 5.99324 9.18152 5.99261 8.92717C5.99102 8.32213 5.99197 7.7174 5.99197 7.11236C5.99197 7.06626 5.99197 7.02047 5.99197 6.9572C5.93917 6.9572 5.89432 6.9572 5.84978 6.9572C5.22758 6.9572 4.6057 6.95848 3.98351 6.95593C3.78565 6.9553 3.63328 6.86659 3.53849 6.69109C3.44624 6.52035 3.45451 6.34739 3.55694 6.18461C3.66923 6.00592 3.84418 5.94774 4.04713 5.94806C4.63942 5.94933 5.23204 5.94837 5.82433 5.94837C5.87459 5.94837 5.92454 5.94837 5.99197 5.94837V5.94869Z" fill="black"/>
</g>
<defs>
<clipPath id="clip0_71_650">
<rect width="13" height="13" fill="white"/>
</clipPath>
</defs>
</svg>
