<svg width="14" height="15" viewBox="0 0 14 15" fill="none" xmlns="http://www.w3.org/2000/svg">
<g clip-path="url(#clip0_60_665)">
<path d="M0.0684604 4.21079C0.0843362 4.15841 0.101938 4.10638 0.116088 4.05331C0.28313 3.42888 0.835679 2.99744 1.48038 2.99709C3.36615 2.99537 5.25159 2.9964 7.13736 2.99675C7.39034 2.99675 7.55945 3.15251 7.55945 3.38305C7.55945 3.61359 7.39034 3.77073 7.13805 3.77073C5.28679 3.77108 3.43552 3.77073 1.58426 3.77073C1.10039 3.77073 0.842581 4.02815 0.842581 4.51095C0.842581 7.20715 0.842581 9.90334 0.842581 12.5995C0.842581 13.0734 1.1035 13.3342 1.57701 13.3342C4.27211 13.3342 6.96721 13.3342 9.66231 13.3342C10.1441 13.3342 10.4019 13.0751 10.4019 12.592C10.4019 10.74 10.4019 8.88779 10.4019 7.03588C10.4019 6.71918 10.6822 6.52172 10.9517 6.64992C11.1012 6.72091 11.176 6.84393 11.176 7.01141C11.176 7.48076 11.176 7.95046 11.176 8.41981C11.176 9.81547 11.1626 11.2111 11.1812 12.6061C11.1923 13.4397 10.5862 14.0114 9.99364 14.0893C9.98259 14.0907 9.97258 14.1024 9.96223 14.1096H1.28262C1.26398 14.1013 1.24569 14.0893 1.22602 14.0851C0.684168 13.968 0.322474 13.6454 0.13645 13.1251C0.109531 13.0499 0.0908936 12.9717 0.0681152 12.8952C0.0681152 10.0005 0.0681152 7.10583 0.0681152 4.21114L0.0684604 4.21079Z" fill="#1E1F25"/>
<path d="M11.8226 0.876718C12.0977 0.944261 12.2979 1.12139 12.4856 1.32092C12.6568 1.50252 12.8387 1.67414 13.0137 1.8523C13.393 2.2386 13.3995 2.78274 13.0157 3.16766C11.0851 5.10331 9.15169 7.0369 7.21518 8.96669C7.14132 9.04044 7.02915 9.0942 6.92596 9.11625C6.34684 9.241 5.7653 9.353 5.18445 9.46913C4.88212 9.52978 4.64536 9.29338 4.70575 8.99219C4.8231 8.40705 4.93561 7.82053 5.06055 7.23677C5.0816 7.13787 5.13716 7.03138 5.20826 6.96005C7.13476 5.02612 9.06299 3.09391 10.9992 1.16963C11.13 1.03972 11.3229 0.972863 11.4868 0.876373C11.5986 0.876373 11.7108 0.876373 11.8226 0.876373V0.876718ZM10.5388 2.68556C10.5067 2.7307 10.4818 2.77791 10.4459 2.81409C8.99569 4.26695 7.54719 5.72188 6.08903 7.16682C5.89058 7.36324 5.74908 7.56518 5.72664 7.84569C5.71974 7.93081 5.6942 8.0142 5.67798 8.09829C5.64795 8.25612 5.61862 8.41395 5.5879 8.57763C5.62897 8.57763 5.65071 8.58108 5.67073 8.57694C5.99066 8.51319 6.31094 8.45185 6.62915 8.38052C6.69438 8.3657 6.76133 8.32159 6.80965 8.27335C8.32959 6.75639 9.84781 5.23702 11.3657 3.71834C11.4009 3.68319 11.4344 3.64666 11.4658 3.61358C11.1603 3.30791 10.8656 3.01293 10.5384 2.68556H10.5388ZM11.1282 2.12557C11.442 2.43951 11.7391 2.7369 12.0439 3.04188C12.1809 2.90438 12.3265 2.7593 12.4708 2.61215C12.5367 2.54496 12.5339 2.47569 12.467 2.40884C12.2326 2.1745 11.9986 1.94052 11.7646 1.70584C11.6984 1.63933 11.63 1.63451 11.5617 1.70067C11.414 1.84403 11.2677 1.98876 11.1286 2.12523L11.1282 2.12557Z" fill="#1E1F25"/>
</g>
<defs>
<clipPath id="clip0_60_665">
<rect width="13.2329" height="13.2329" fill="white" transform="translate(0.0683594 0.876724)"/>
</clipPath>
</defs>
</svg>
