<svg width="50" height="50" viewBox="0 0 50 50" fill="none" xmlns="http://www.w3.org/2000/svg">
<g clip-path="url(#clip0_64_1306)">
<path d="M32.8535 32.5844C34.3401 31.3935 35.8233 30.2259 37.2849 29.0333C39.0374 27.6026 38.951 27.6525 40.667 29.0333C43.5669 31.3685 46.4718 33.6954 49.38 36.0189C49.794 36.3487 50.1415 36.6968 49.9453 37.2781C49.7358 37.8994 49.242 38.0309 48.65 38.006C48.1329 37.9843 47.6158 38.001 47.0088 38.001C47.0088 38.2508 47.0088 38.4707 47.0088 38.6905C47.0088 42.0234 47.0088 45.3546 47.0088 48.6875C47.0088 49.7002 46.7145 50 45.7202 50C31.2955 50 16.8692 50 2.4445 49.9934C1.92571 49.9934 1.40526 49.9617 0.889795 49.9068C0.186437 49.8318 -0.0929115 49.467 0.0284719 48.7542C0.326111 47.0119 0.618761 45.268 0.971272 43.5358C1.34706 41.6836 1.61144 39.7848 2.23 38.0126C4.28853 32.1164 8.42887 28.3521 14.3816 26.5499C14.6111 26.4799 14.947 26.2451 14.957 26.0719C14.9786 25.6455 15.1432 25.1724 14.523 24.8643C11.806 23.5101 10.0518 21.3415 9.30017 18.3817C9.22368 18.0803 9.13389 17.9087 8.76475 17.8371C7.26825 17.5456 6.25395 16.4646 6.00286 14.9855C5.7734 13.6364 6.39196 12.3805 7.63572 11.5377C7.8286 11.4078 7.97826 11.073 7.98491 10.8282C8.01484 9.6839 7.98491 8.53796 7.98158 7.39202C7.95996 3.00147 10.9314 0.00836393 15.3128 0.00336709C17.496 0.00170148 19.6776 -0.00329535 21.8609 0.00336709C26.4036 0.0200232 29.9004 3.52447 29.932 8.08325C29.9387 8.97935 29.9437 9.87378 29.9287 10.7699C29.9237 11.108 30.0002 11.3245 30.3211 11.5261C31.5765 12.3156 32.092 13.5015 31.8592 14.9472C31.6198 16.4346 30.7584 17.449 29.2603 17.8021C28.8512 17.8987 28.7115 18.0703 28.6085 18.4667C27.8469 21.3682 26.1109 23.5151 23.4405 24.8493C22.7887 25.1758 22.9267 25.6455 22.9816 26.0885C23.0049 26.2751 23.3707 26.4949 23.6184 26.5649C27.1818 27.5626 30.1798 29.4381 32.5692 32.2796C32.649 32.3729 32.7372 32.4595 32.8552 32.5861L32.8535 32.5844ZM27.0554 13.0018C25.0584 13.0018 23.1512 12.9985 21.244 13.0018C18.7864 13.0068 16.8343 12.0074 15.366 10.0403C15.2746 9.91709 15.1648 9.80882 15.0384 9.66391C14.1156 11.0913 12.9051 12.0574 11.3687 12.6204C11.2357 12.6687 11.0644 12.8686 11.0661 12.9951C11.086 14.3876 11.0245 15.7934 11.2007 17.1675C11.6696 20.8235 14.7608 23.725 18.3324 23.9865C22.1485 24.2663 25.5822 21.9395 26.6979 18.3451C27.2367 16.6112 26.9789 14.8423 27.0554 13.0001V13.0018ZM14.2885 47.9763C14.8506 44.2803 15.3826 40.641 15.9729 37.0099C16.106 36.1871 15.9463 35.5459 15.3095 34.9712C15.1582 35.0695 14.9836 35.1761 14.8173 35.2943C14.1555 35.7624 13.4987 36.2354 12.8353 36.7018C12.4611 36.965 12.0687 37.1232 11.6181 36.875C11.1758 36.6318 11.071 36.2388 11.0744 35.769C11.0843 34.5831 11.0777 33.3955 11.0777 32.2096C11.0777 31.5767 11.0777 30.9438 11.0777 30.2242C10.8599 30.3558 10.7368 30.4241 10.6204 30.5007C7.49438 32.5961 5.21304 35.3793 4.12558 38.9987C3.53695 40.9608 3.25428 43.0145 2.8469 45.0299C2.65235 45.9976 2.49106 46.972 2.30815 47.9763H14.2869H14.2885ZM31.0095 38.0559C30.2446 37.9993 29.513 38.0143 28.8096 37.876C28.0664 37.7295 27.8502 36.9433 28.3524 36.3837C28.6151 36.0922 28.9227 35.8373 29.227 35.5858C29.9121 35.0229 30.6088 34.4732 31.3288 33.8969C30.1449 32.4228 28.7581 31.2852 27.1568 30.2126C27.1568 32.1097 27.1518 33.8569 27.1602 35.6058C27.1618 36.1272 27.1136 36.6085 26.5832 36.885C26.0677 37.1548 25.6637 36.8967 25.2646 36.6168C24.4714 36.0605 23.68 35.4992 22.9167 34.9612C22.2766 35.5525 22.1103 36.1971 22.2533 37.0216C22.654 39.3368 22.9683 41.667 23.3241 43.9905C23.5286 45.3197 23.7465 46.6455 23.9576 47.9697H31.0095V38.0559ZM16.0694 2.1087C16.0694 3.35791 16.0627 4.62544 16.0694 5.89464C16.0893 8.81112 18.2493 10.9831 21.1558 10.9997C23.2543 11.0114 25.3544 11.0031 27.4528 10.9997C27.6341 10.9997 27.8136 10.9814 28.0298 10.9714C28.0298 9.81215 28.0813 8.68953 28.0198 7.57357C27.8685 4.87028 25.7884 2.41517 23.103 2.15367C20.8033 1.92881 18.4655 2.10703 16.0677 2.10703L16.0694 2.1087ZM33.0797 38.0276V47.9697H36.0295C36.0295 47.7398 36.0295 47.5366 36.0295 47.3334C36.0295 45.6045 36.0245 43.8772 36.0328 42.1483C36.0361 41.3405 36.367 41.0091 37.1685 41.0024C38.394 40.9924 39.6211 40.9941 40.8466 41.0024C41.6879 41.0074 42.0122 41.3339 42.0155 42.18C42.0222 43.8872 42.0172 45.5945 42.0172 47.3017C42.0172 47.5216 42.0172 47.7415 42.0172 47.9497H44.9786V38.026H33.0797V38.0276ZM21.9523 47.973C21.3853 44.2986 20.8233 40.6593 20.2646 37.0416H17.9566C17.393 40.7009 16.8359 44.322 16.2739 47.973H21.9507H21.9523ZM46.0012 35.9706C45.9164 35.8607 45.8898 35.8057 45.8449 35.769C43.6733 34.0252 41.4934 32.2896 39.3318 30.534C38.9959 30.2609 38.818 30.4607 38.5935 30.6406C36.5316 32.2896 34.4698 33.9369 32.4096 35.5875C32.2899 35.6824 32.1851 35.7974 32.0022 35.9689H46.0012V35.9706ZM14.1538 2.0554C12.0238 2.69 10.5705 3.86925 10.2596 5.8963C10.0118 7.51028 10.2097 9.19255 10.2097 10.8365C12.0438 10.5417 13.6633 9.01932 13.9194 7.03225C14.1256 5.43326 14.0807 3.80096 14.1538 2.0554ZM17.5659 30.8022C17.0105 30.0293 16.5017 29.2981 15.9596 28.5919C15.8632 28.467 15.5988 28.3637 15.4525 28.4037C14.7342 28.5969 14.0258 28.8301 13.3258 29.08C13.1828 29.1299 12.9882 29.3115 12.9849 29.4364C12.9616 30.9421 12.9699 32.4495 12.9699 34.1001C14.5562 32.9625 16.0295 31.9065 17.5675 30.8022H17.5659ZM25.0518 34.0984V31.1836C25.0518 29.6513 24.2858 28.754 22.7538 28.492C22.6923 28.482 22.6291 28.4487 22.5725 28.4587C22.4611 28.4787 22.3098 28.4837 22.25 28.5586C21.653 29.2898 21.0727 30.036 20.4641 30.8055C21.9972 31.9065 23.4588 32.9558 25.0534 34.1001L25.0518 34.0984ZM39.9786 47.973V43.0511H38.0581V47.973H39.9786ZM17.0122 25.917C17.1435 27.3894 18.3906 28.1339 19.0907 29.4014C19.7125 28.0739 21.1459 27.4077 21.0627 25.917H17.0122ZM19.0225 34.9945C19.7973 35.0412 20.509 34.9779 20.9114 34.1967C21.0594 33.9119 21.0694 33.7054 20.7501 33.4705C19.0591 32.2246 19.074 32.2246 17.383 33.4672C17.0637 33.702 17.0687 33.9019 17.23 34.1884C17.6357 34.9029 18.2875 35.0662 19.0225 34.9962V34.9945ZM9.06073 13.1301C8.34241 13.4965 8.03479 13.9729 8.11627 14.5908C8.19275 15.1638 8.43552 15.6318 9.06073 15.8383V13.1301ZM29.0774 15.8766C29.7026 15.5802 30.0118 15.1255 30.0102 14.5058C30.0102 13.8896 29.7192 13.4199 29.0774 13.1367V15.875V15.8766Z" fill="#0474BD"/>
<path d="M9.06075 13.13V15.8383C8.43554 15.6318 8.19278 15.1637 8.11629 14.5907C8.03481 13.9728 8.34243 13.4948 9.06075 13.13Z" fill="white"/>
<path d="M29.0771 15.8766V13.1383C29.719 13.4215 30.01 13.8912 30.01 14.5074C30.01 15.1254 29.7024 15.5801 29.0771 15.8782V15.8766Z" fill="white"/>
</g>
<defs>
<clipPath id="clip0_64_1306">
<rect width="50" height="50" fill="white"/>
</clipPath>
</defs>
</svg>
