<svg width="48" height="49" viewBox="0 0 48 49" fill="none" xmlns="http://www.w3.org/2000/svg">
<g clip-path="url(#clip0_64_1347)">
<path d="M0 1.96923C0.303422 0.996672 0.86606 0.279309 1.91397 0.0592779C2.15611 0.00904238 2.4103 0.00301413 2.65846 0.00200942C8.33206 0 14.0067 0 19.6803 0C21.4566 0 22.403 0.940408 22.4111 2.7087C22.4111 2.84735 22.4111 2.987 22.4111 3.19498C22.615 3.19498 22.7959 3.19498 22.9757 3.19498C25.9607 3.19498 28.9467 3.18895 31.9317 3.20703C32.1628 3.20804 32.4511 3.32659 32.6149 3.48936C35.7978 6.65017 38.9677 9.82305 42.1315 13.003C42.2691 13.1416 42.3947 13.3677 42.3957 13.5535C42.4108 17.4759 42.4068 21.3983 42.4058 25.3207C42.4058 25.396 42.3937 25.4714 42.3847 25.5719H40.8203V14.4035H31.2193V4.82462H22.4111C22.4111 5.00747 22.4111 5.18732 22.4111 5.36816C22.4111 11.7913 22.4121 18.2134 22.41 24.6365C22.41 25.9275 21.6907 26.883 20.5162 27.1412C20.26 27.1975 19.9887 27.1965 19.7245 27.1965C15.7538 27.1995 11.7842 27.1985 7.81363 27.1985C7.62976 27.1985 7.44691 27.1985 7.23592 27.1985V46.3794H40.7952V36.8477H42.3807C42.3897 36.9673 42.4048 37.0728 42.4058 37.1783C42.4068 40.7259 42.4058 44.2725 42.4058 47.8202C42.4058 47.8825 42.3957 47.9447 42.3907 48.007H5.62738C5.62135 47.8041 5.6113 47.6011 5.6113 47.3992C5.6113 40.8696 5.6113 34.34 5.6113 27.8104V27.1965C4.47196 27.1965 3.40998 27.2136 2.34901 27.1915C1.39152 27.1714 0.694254 26.7002 0.251177 25.8552C0.157739 25.6804 0.0823862 25.4965 0 25.3167C0 17.5342 0 9.75171 0 1.96923ZM1.59749 13.5807C1.59749 17.2046 1.59749 20.8286 1.59749 24.4536C1.59749 25.3639 1.83058 25.602 2.72176 25.602C8.37827 25.602 14.0348 25.602 19.6903 25.602C20.5634 25.602 20.8126 25.3579 20.8126 24.4958C20.8126 17.2318 20.8126 9.96772 20.8126 2.70367C20.8126 1.84766 20.5574 1.59849 19.6863 1.59849C14.0298 1.59849 8.37325 1.59849 2.71774 1.59849C1.84867 1.59849 1.59849 1.84666 1.59849 2.7087C1.59849 6.33268 1.59849 9.95667 1.59849 13.5817L1.59749 13.5807ZM39.4519 12.7749C37.2526 10.5796 35.0212 8.35416 32.844 6.18097V12.7749H39.4519Z" fill="#fff"/>
<path d="M48.0001 27.1814C47.974 27.9882 47.6465 28.578 47.124 29.0974C43.7593 32.4491 40.4035 35.8099 37.0458 39.1666C35.9738 40.2376 34.9098 41.3167 33.8257 42.3747C33.5856 42.6088 33.2932 42.8087 32.9908 42.9534C31.7952 43.5261 30.5835 44.0656 29.3829 44.6282C28.99 44.8121 28.6082 44.9176 28.2606 44.571C27.916 44.2273 27.9923 43.8435 28.1863 43.4497C28.3862 43.0438 28.6012 42.6409 28.7509 42.2169C29.4723 40.1663 30.7794 38.5618 32.3307 37.0577C36.1888 33.3172 39.9524 29.4802 43.7502 25.6784C44.4605 24.9671 45.2864 24.6847 46.268 24.949C47.2978 25.2253 48.0102 26.1818 48.0011 27.1824L48.0001 27.1814ZM30.484 42.3445C31.5902 41.8452 32.5859 41.4142 33.4067 40.5722C36.3716 37.5289 39.4008 34.549 42.4049 31.5439C42.5225 31.4263 42.634 31.3028 42.6671 31.2676C42.3085 30.8547 41.9749 30.4689 41.578 30.0127C41.4474 30.1815 41.356 30.3302 41.2354 30.4508C38.2886 33.4016 35.3629 36.3765 32.3729 39.2822C31.4877 40.1432 30.9623 41.156 30.483 42.3435L30.484 42.3445ZM45.5989 28.3248C46.4599 27.5512 46.6046 27.088 46.1454 26.654C45.6883 26.2219 45.1578 26.4078 44.5078 27.2327C44.8644 27.5894 45.2221 27.948 45.5989 28.3258V28.3248ZM44.3872 29.5666C44.0044 29.1798 43.6397 28.8101 43.271 28.4383C43.1273 28.57 42.9565 28.7257 42.845 28.8282C43.2378 29.227 43.6005 29.5948 43.9491 29.9474C44.0978 29.8178 44.2727 29.6661 44.3872 29.5656V29.5666Z" fill="#fff"/>
<path d="M26.4128 36.8557C26.3586 41.3196 22.7255 44.8753 18.2867 44.809C13.8509 44.7437 10.3555 41.1076 10.4098 36.6146C10.462 32.2833 14.1513 28.7306 18.5248 28.7989C22.9004 28.8673 26.4651 32.5083 26.4118 36.8547L26.4128 36.8557ZM24.8093 36.8095C24.8173 33.3 21.962 30.4226 18.4475 30.3974C14.923 30.3723 12.0153 33.2508 12.0053 36.7753C11.9952 40.3129 14.8607 43.2035 18.3882 43.2135C21.9137 43.2236 24.8023 40.3431 24.8103 36.8105L24.8093 36.8095Z" fill="#fff"/>
<path d="M28.8193 24.7681V23.2369H38.3902V24.7681H28.8193Z" fill="#fff"/>
<path d="M38.3907 20.038V21.5722H28.8369V20.038H38.3907Z" fill="#fff"/>
<path d="M28.8271 18.3651V16.8259H38.3809V18.3651H28.8271Z" fill="#fff"/>
<path d="M28.8447 26.4409H38.3945V27.9791H28.8447V26.4409Z" fill="#fff"/>
<path d="M25.6426 23.2319H27.1808V24.7661H25.6426V23.2319Z" fill="#fff"/>
<path d="M27.1721 21.5691H25.6299V20.0319H27.1721V21.5691Z" fill="#fff"/>
<path d="M27.1767 18.3701H25.6436V16.8289H27.1767V18.3701Z" fill="#fff"/>
<path d="M27.1831 26.449V27.9822H25.6309V26.449H27.1831Z" fill="#fff"/>
<path d="M2.43164 7.96134V2.43945H19.9598V7.96134H2.43164ZM4.03415 6.36284H18.3583V4.03895H4.03415V6.36284Z" fill="#fff"/>
<path d="M13.6013 22.419C13.6013 22.6531 13.6043 22.8872 13.6013 23.1213C13.5872 24.115 12.9703 24.76 11.9716 24.7992C11.4572 24.8193 10.9398 24.8203 10.4254 24.7992C9.42972 24.758 8.81986 24.112 8.80982 23.1113C8.80479 22.627 8.80379 22.1427 8.80982 21.6585C8.82288 20.696 9.44881 20.0409 10.4123 19.9997C10.9117 19.9786 11.412 19.9856 11.9114 19.9967C12.9532 20.0198 13.5902 20.6729 13.6013 21.7147C13.6033 21.9488 13.6013 22.1829 13.6013 22.417V22.419ZM10.4314 21.6203V23.1706H11.9706V21.6203H10.4314Z" fill="#fff"/>
<path d="M14.4135 22.3899C14.4135 22.1398 14.4075 21.8896 14.4145 21.6404C14.4437 20.691 15.0465 20.05 15.9879 20.0037C16.5335 19.9766 17.082 19.9766 17.6276 20.0037C18.561 20.051 19.1839 20.703 19.211 21.6414C19.2251 22.1558 19.2271 22.6723 19.211 23.1877C19.1799 24.106 18.57 24.7409 17.6507 24.7942C17.1373 24.8243 16.6199 24.8153 16.1045 24.8032C15.0445 24.7771 14.4326 24.1532 14.4135 23.0932C14.4095 22.8591 14.4135 22.625 14.4135 22.3909V22.3899ZM17.5864 23.1736V21.6344H16.0412V23.1736H17.5864Z" fill="#fff"/>
<path d="M7.98646 22.393C7.98646 22.7055 8.00253 23.019 7.98344 23.3294C7.93722 24.0679 7.40674 24.6938 6.6733 24.7571C5.96197 24.8184 5.23556 24.8184 4.52423 24.7571C3.78275 24.6918 3.24222 24.0498 3.20504 23.2802C3.17792 22.7035 3.17792 22.1238 3.20404 21.5471C3.24322 20.674 3.88423 20.048 4.78244 20.0048C5.32799 19.9787 5.87657 19.9777 6.42212 20.0048C7.36253 20.0521 7.96837 20.6981 7.99349 21.6445C8.00052 21.8947 7.99349 22.1439 7.99349 22.394C7.99047 22.394 7.98847 22.394 7.98545 22.394L7.98646 22.393ZM6.36184 23.1767V21.6395H4.82664V23.1767H6.36184Z" fill="#fff"/>
<path d="M8.81198 11.2186C8.81198 10.9222 8.80093 10.6248 8.81399 10.3284C8.85016 9.50152 9.48715 8.84544 10.309 8.8143C10.9018 8.7922 11.4966 8.7932 12.0893 8.8143C12.9122 8.84344 13.5633 9.49248 13.5954 10.3183C13.6175 10.9111 13.6195 11.5059 13.5954 12.0987C13.5612 12.9175 12.9012 13.5636 12.0773 13.5937C11.5307 13.6138 10.9842 13.6068 10.4366 13.5977C9.48313 13.5826 8.83007 12.9246 8.81098 11.9691C8.80596 11.7189 8.81098 11.4697 8.81098 11.2196H8.81299L8.81198 11.2186ZM11.9959 10.4349H10.4416V11.9651H11.9959V10.4349Z" fill="#fff"/>
<path d="M5.65776 8.80724C7.46122 8.66357 8.13035 9.42514 7.99773 11.1301C7.97563 11.4094 7.99974 11.6928 7.9917 11.9731C7.96458 12.9386 7.32156 13.5816 6.36407 13.5977C5.84866 13.6057 5.33324 13.6067 4.81783 13.5977C3.91459 13.5806 3.24144 12.9426 3.20326 12.0484C3.17914 11.4868 3.18015 10.9232 3.20326 10.3625C3.24043 9.46533 3.90957 8.83136 4.81481 8.81126C5.09613 8.80523 5.37745 8.81026 5.65877 8.80925L5.65776 8.80724ZM6.3701 11.9811V10.4339H4.82888V11.9811H6.3701Z" fill="#fff"/>
<path d="M14.4239 11.1965C14.4239 10.884 14.4048 10.5706 14.4279 10.2601C14.4852 9.47142 15.1031 8.85051 15.8867 8.81635C16.4946 8.79023 17.1055 8.79023 17.7133 8.81535C18.5422 8.8485 19.1731 9.51462 19.2083 10.3857C19.2304 10.9313 19.2314 11.4798 19.2083 12.0254C19.1671 12.9497 18.497 13.5817 17.5646 13.5968C17.0653 13.6048 16.5649 13.6038 16.0656 13.5968C15.097 13.5837 14.452 12.9558 14.4169 11.9922C14.4068 11.727 14.4158 11.4618 14.4158 11.1955C14.4189 11.1955 14.4219 11.1955 14.4249 11.1955L14.4239 11.1965ZM17.5897 11.9822V10.4319H16.0465V11.9822H17.5897Z" fill="#fff"/>
<path d="M11.2086 14.4136C11.4899 14.4136 11.7713 14.4015 12.0516 14.4156C12.9588 14.4598 13.5817 15.1068 13.5988 16.0231C13.6089 16.5385 13.6079 17.054 13.5988 17.5694C13.5827 18.4997 12.9458 19.1659 12.0184 19.204C11.4729 19.2261 10.9243 19.2271 10.3787 19.204C9.45439 19.1639 8.82343 18.4947 8.80937 17.5603C8.80133 17.061 8.80234 16.5606 8.80937 16.0613C8.82243 15.0887 9.44535 14.4477 10.4109 14.4126C10.6761 14.4025 10.9424 14.4116 11.2076 14.4116V14.4136H11.2086ZM10.434 17.5794H11.9712V16.0503H10.434V17.5794Z" fill="#fff"/>
<path d="M7.99215 16.8148C7.99215 17.08 8.00019 17.3463 7.99114 17.6115C7.95899 18.5198 7.33206 19.1658 6.42078 19.204C5.87523 19.2271 5.32665 19.2271 4.7811 19.204C3.87585 19.1658 3.23083 18.5127 3.20169 17.6115C3.18361 17.066 3.1816 16.5174 3.2027 15.9718C3.23686 15.0857 3.87184 14.4517 4.75799 14.4165C5.28848 14.3954 5.81997 14.4005 6.35045 14.4115C7.35315 14.4336 7.97105 15.0616 7.99315 16.0653C7.99818 16.3154 7.99315 16.5646 7.99315 16.8148C7.99315 16.8148 7.99215 16.8148 7.99114 16.8148H7.99215ZM6.36753 17.5844V16.0462H4.82229V17.5844H6.36753Z" fill="#fff"/>
<path d="M14.4248 16.7746C14.4248 16.4621 14.4047 16.1486 14.4289 15.8382C14.4881 15.0877 15.0709 14.4768 15.8174 14.4326C16.4704 14.3934 17.1305 14.3924 17.7836 14.4316C18.5773 14.4788 19.1691 15.1299 19.2073 15.9658C19.2324 16.5113 19.2294 17.0589 19.2093 17.6055C19.1741 18.5318 18.519 19.1758 17.5877 19.207C17.0883 19.2231 16.588 19.219 16.0886 19.209C15.0749 19.1889 14.4389 18.5459 14.4148 17.5261C14.4088 17.2759 14.4148 17.0268 14.4148 16.7766C14.4188 16.7766 14.4228 16.7766 14.4268 16.7766L14.4248 16.7746ZM17.5897 16.0381H16.0525V17.5804H17.5897V16.0381Z" fill="#fff"/>
<path d="M17.6228 32.8028V32.0251H19.1941V32.855C20.4129 33.2027 21.4166 33.7221 21.6195 35.195C21.0961 35.195 20.6218 35.199 20.1476 35.189C20.0873 35.188 20.018 35.1197 19.9698 35.0674C19.2916 34.333 17.9583 34.1802 17.1496 34.7459C16.7145 35.0503 16.6844 35.413 17.1526 35.6441C17.5575 35.844 18.0317 35.9526 18.4848 35.9948C19.1961 36.0611 19.8753 36.1867 20.4852 36.5715C21.9812 37.5159 21.9812 39.3063 20.4711 40.2336C20.1044 40.4587 19.6824 40.5933 19.2343 40.7922C19.2223 41.0022 19.2072 41.2775 19.1901 41.584H17.6198V40.7581C16.4071 40.4094 15.3803 39.892 15.1924 38.4181C15.6978 38.4181 16.1629 38.4121 16.6261 38.4241C16.7025 38.4262 16.7929 38.4945 16.8512 38.5558C17.5243 39.2681 18.8194 39.4248 19.6382 38.8873C20.1114 38.5769 20.1265 38.171 19.6081 37.9298C19.2112 37.745 18.7501 37.6515 18.31 37.6143C17.5806 37.5541 16.8893 37.4114 16.2745 37.0025C14.8337 36.044 14.8448 34.3119 16.3146 33.3946C16.6924 33.1585 17.1325 33.0218 17.6228 32.8038V32.8028Z" fill="#fff"/>
</g>
<defs>
<clipPath id="clip0_64_1347">
<rect width="48" height="48.007" fill="white"/>
</clipPath>
</defs>
</svg>
