<svg width="16" height="11" viewBox="0 0 16 11" fill="none" xmlns="http://www.w3.org/2000/svg">
<g clip-path="url(#clip0_42_969)">
<path d="M0 9.31624C0 7.18532 0 5.05405 0 2.92313C0.0260318 2.93363 0.0544301 2.94086 0.077701 2.95498C2.12277 4.20573 4.16706 5.45721 6.21213 6.70797C7.09406 7.24721 8.02016 7.24938 8.9009 6.71086C10.9223 5.47567 12.9425 4.23867 14.9632 3.00239C15.0065 2.97597 15.0507 2.95064 15.1158 2.91264V3.03568C15.1158 5.06744 15.1166 7.09919 15.1138 9.13058C15.1138 9.23734 15.0965 9.34736 15.0657 9.45051C14.8929 10.0343 14.3514 10.3965 13.6564 10.3965C9.59232 10.3969 5.52781 10.3965 1.4637 10.3965C1.41952 10.3965 1.37495 10.3976 1.33078 10.3947C0.866543 10.3618 0.486321 10.1826 0.235469 9.81929C0.130553 9.66729 0.0769121 9.48489 0 9.31624Z" fill="#0474BD"/>
<path d="M0 1.0814C0.0228764 1.01336 0.0445696 0.945323 0.0690237 0.877646C0.251641 0.374593 0.766755 0.021009 1.34576 0.00182784C1.38521 0.000380208 1.42465 0.000742116 1.4637 0.000742116C5.52781 0.000742116 9.59193 0.000742116 13.656 0.000742116C14.2556 0.000742116 14.7095 0.234897 14.9789 0.731797C15.2854 1.2971 15.0921 1.94347 14.5111 2.30537C13.8158 2.73858 13.1145 3.1631 12.4152 3.59087C11.0947 4.39865 9.77336 5.20643 8.45244 6.01421C7.81506 6.40398 7.30192 6.40398 6.66414 6.01385C4.74173 4.83765 2.82287 3.65674 0.893758 2.48995C0.474489 2.23589 0.11596 1.95903 0 1.48746C0 1.35211 0 1.21675 0 1.0814Z" fill="#0474BD"/>
</g>
<defs>
<clipPath id="clip0_42_969">
<rect width="15.1233" height="10.3973" fill="white"/>
</clipPath>
</defs>
</svg>
