<svg width="52" height="52" viewBox="0 0 52 52" fill="none" xmlns="http://www.w3.org/2000/svg">
<g clip-path="url(#clip0_64_1316)">
<path d="M0 39.9137C0.353438 39.0468 0.583646 38.0985 1.0874 37.3279C2.24927 35.548 3.99615 34.654 6.11406 34.6838C7.12292 34.6987 7.9476 34.4885 8.68698 33.802C9.13115 33.3896 9.66469 33.0762 10.1319 32.6882C10.2646 32.5783 10.3729 32.364 10.381 32.1917C10.4108 31.5663 10.4122 30.9395 10.3797 30.3141C10.3716 30.1499 10.2443 29.9356 10.1048 29.8433C7.87719 28.3687 6.54875 26.3215 6.15469 23.6788C6.10865 23.3722 5.98677 23.2378 5.68885 23.1293C3.92167 22.4781 3.055 20.5707 3.66031 18.7759C3.74156 18.5357 3.77813 18.2441 3.72531 18.0012C2.68667 13.1689 4.85604 8.26326 9.13792 5.8403C9.44667 5.66529 9.54688 5.48622 9.54958 5.1362C9.56583 2.3049 11.872 0.0162445 14.6981 -3.51429e-05C17.5541 -0.0163148 19.8805 2.25606 19.9117 5.11585C19.9157 5.4523 19.9875 5.6463 20.3071 5.82945C24.6364 8.30124 26.7678 13.1295 25.7305 18.0297C25.6845 18.2454 25.7075 18.5018 25.7793 18.7121C26.4144 20.5815 25.5897 22.4306 23.7629 23.1619C23.5178 23.2596 23.3946 23.3667 23.3526 23.6516C22.9613 26.2523 21.6653 28.2927 19.4756 29.7484C19.1669 29.9532 19.0464 30.1594 19.0667 30.5216C19.0978 31.044 19.0409 31.573 19.0897 32.094C19.1114 32.3246 19.2468 32.6054 19.4242 32.7492C20.1459 33.3353 20.8989 33.8834 21.6518 34.4301C21.8061 34.5414 22.0079 34.6418 22.1921 34.6485C22.8651 34.6743 23.5395 34.6594 24.2802 34.6594C24.0229 33.4656 24.8517 32.6109 25.373 31.6477C25.9093 30.6573 26.4834 29.6873 27.0969 28.6074C26.5119 28.6074 26.0311 28.6129 25.5491 28.6047C25.331 28.6006 25.1035 28.6047 24.8964 28.5477C24.4671 28.4297 24.2504 28.1163 24.2789 27.6754C24.3059 27.2603 24.5402 26.9822 24.9586 26.9035C25.1564 26.8669 25.3622 26.8709 25.5653 26.8709C28.4592 26.8696 31.353 26.8641 34.2469 26.8764C34.6098 26.8777 34.8061 26.8072 34.951 26.4259C35.4494 25.1141 36.7142 24.2784 38.1022 24.2702C39.5241 24.2621 40.797 25.0883 41.3116 26.4165C41.4551 26.7868 41.6352 26.8791 42.0076 26.8764C44.9353 26.8614 47.863 26.8764 50.7907 26.8601C51.3053 26.8574 51.7102 26.9862 51.9986 27.4204V28.0295C51.7075 28.4908 51.2809 28.64 50.7515 28.6101C50.2585 28.583 49.7629 28.6047 49.1495 28.6047C50.1448 30.3209 51.0724 31.9176 51.9986 33.5144V35.2414C51.9661 35.316 51.9215 35.3879 51.9011 35.4666C51.4719 37.062 50.2545 38.0496 48.597 38.1188C48.0052 38.1432 47.4121 38.1243 46.8203 38.127C43.8804 38.1419 42.4843 34.81 43.8046 32.7235C44.3192 31.9095 44.7687 31.0548 45.2454 30.2178C45.5352 29.709 45.8236 29.1989 46.1459 28.6291C45.9062 28.6183 45.7438 28.6061 45.5799 28.6047C44.5304 28.6034 43.4796 28.6413 42.4328 28.5898C41.795 28.5586 41.4524 28.7037 41.1315 29.3332C40.8281 29.9261 40.7211 30.4728 40.7239 31.1023C40.7333 35.0121 40.7279 38.922 40.7279 42.8304V43.4274C42.3272 43.9809 43.2047 45.0608 43.3496 46.7294C43.3618 46.8651 43.5378 47.0225 43.6759 47.1039C44.6469 47.6723 45.0382 48.527 45.0856 49.6299C45.1317 50.7179 44.8283 51.5509 43.7707 51.9973H32.4973C31.808 51.673 31.265 51.2185 31.2041 50.3978C31.1743 49.9949 31.1661 49.5824 31.2095 49.1809C31.3083 48.2638 31.7809 47.5814 32.5758 47.1011C32.7383 47.0021 32.8968 46.7728 32.9198 46.5856C33.0958 45.172 33.7959 44.1437 35.119 43.6037C35.4738 43.4586 35.5442 43.2822 35.5428 42.943C35.5333 39.0685 35.5306 35.1939 35.5428 31.3193C35.5455 30.5908 35.5983 29.8691 35.0526 29.2749C34.9768 29.1921 34.9375 29.0646 34.9131 28.952C34.8522 28.6671 34.6843 28.5939 34.4053 28.5979C33.1026 28.6115 31.7999 28.6034 30.4972 28.6061C30.3916 28.6061 30.2873 28.6373 30.179 28.6536C30.1952 28.7309 30.1939 28.7675 30.2088 28.7933C30.9278 30.0563 31.6198 31.337 32.3822 32.5729C32.8128 33.2702 32.9658 33.9797 32.9252 34.7829C32.8358 36.5668 31.4979 37.975 29.7118 38.108C29.4653 38.1256 29.2175 38.1378 29.0225 38.15C29.1701 38.9545 29.4206 39.7237 29.4355 40.4984C29.487 43.2049 29.468 45.9127 29.4518 48.6192C29.4423 50.0749 28.4971 51.3298 27.1185 51.8046C26.9466 51.8643 26.7786 51.9321 26.608 51.9973H2.94531C1.87417 51.7327 0.983125 51.205 0.442813 50.2078C0.261354 49.8782 0.14625 49.5092 0 49.1564C0 46.0755 0 42.9946 0 39.9137ZM13.9398 12.0808C13.1043 12.2789 12.2972 12.3969 11.5416 12.6628C9.60511 13.3439 8.19406 14.5567 7.84198 16.7016C7.71063 17.506 7.27458 18.0053 6.50948 18.259C5.66448 18.5398 5.19729 19.1476 5.19323 19.9222C5.18781 20.7077 5.67396 21.3358 6.53792 21.6221C7.33417 21.8853 7.74042 22.4239 7.83656 23.2541C8.24146 26.78 11.1204 29.416 14.6006 29.4635C18.1445 29.5123 21.1115 27.0025 21.5935 23.4658C21.733 22.4456 22.1691 21.8202 23.1549 21.5339C23.6722 21.3833 24.0012 20.9899 24.1732 20.4812C24.4969 19.5261 24.004 18.6076 22.9667 18.263C22.3898 18.0718 21.8739 17.7692 21.733 17.1669C21.5015 16.1765 20.8068 15.7628 19.932 15.5294C19.0017 15.2825 18.0605 15.0763 17.1329 14.8199C15.6975 14.4238 14.4246 13.8133 13.9425 12.0808H13.9398ZM24.1407 16.8223C24.6607 14.2745 23.6803 9.97398 19.8006 7.52796C16.4166 5.39532 12.0264 5.61374 8.86438 8.0774C6.18583 10.1639 4.52833 14.3017 5.35302 16.8128C5.915 16.7707 6.09104 16.4234 6.21969 15.9066C6.37271 15.2934 6.61104 14.6707 6.95229 14.1402C8.5299 11.6847 10.9471 10.7093 13.7299 10.4597C14.7225 10.3701 15.321 10.8029 15.6433 11.7593C15.8072 12.2436 16.1146 12.5828 16.5682 12.7754C16.9704 12.9464 17.3902 13.0848 17.8114 13.2055C18.915 13.5189 20.0403 13.7671 21.1264 14.1321C22.0336 14.4373 22.8042 15.018 23.1156 15.9581C23.3011 16.5198 23.6559 16.7029 24.1407 16.8223ZM8.14531 50.2553C6.74104 48.3194 5.42208 46.4567 4.05031 44.6348C3.44094 43.8262 3.34479 43.0651 3.79031 42.1467C4.63938 40.4007 5.42344 38.6235 6.23323 36.8585C6.29417 36.7269 6.34156 36.5899 6.39844 36.4461C4.10448 36.1368 1.82135 38.0754 1.75635 40.4753C1.68188 43.1791 1.72385 45.8869 1.7401 48.5921C1.74552 49.4522 2.39417 50.2078 3.24052 50.239C4.83844 50.2974 6.44042 50.2553 8.14531 50.2553ZM23.029 36.385C23.1332 36.6279 23.1942 36.7812 23.2632 36.9318C24.0527 38.6493 24.8083 40.3844 25.6452 42.0789C26.1151 43.0285 26.046 43.8113 25.4042 44.6551C24.1258 46.336 22.9111 48.0657 21.6707 49.7764C21.5678 49.9175 21.4757 50.0668 21.3417 50.2675C22.991 50.2675 24.5456 50.2906 26.0989 50.258C26.9736 50.2404 27.709 49.5282 27.7157 48.6708C27.7388 45.8978 27.778 43.1235 27.69 40.3532C27.6534 39.2164 27.2702 38.1215 26.0108 37.6426C25.7684 37.5504 25.522 37.37 25.3663 37.1624C24.7799 36.3837 23.939 36.4515 23.0276 36.3837L23.029 36.385ZM8.95781 38.032C9.08917 41.1591 12.0575 47.7008 13.8382 48.8702V37.7607C13.2939 38.3386 12.8294 38.8446 12.35 39.3371C11.6661 40.0412 10.8591 40.0385 10.1766 39.3317C9.79063 38.9315 9.41552 38.5204 8.95781 38.0306V38.032ZM15.6406 49.0154C18.3192 45.7594 19.9333 42.1942 20.4357 38.1188C20.1026 38.4729 19.7708 38.827 19.4377 39.1811C18.5765 40.0995 17.8398 40.1022 16.9853 39.1946C16.5615 38.7442 16.1349 38.2979 15.6406 37.7756V49.014V49.0154ZM16.8499 50.2716C17.5676 50.2716 18.158 50.2553 18.7484 50.2784C19.0504 50.2906 19.2373 50.1943 19.4174 49.9447C20.9571 47.8012 22.509 45.6658 24.069 43.5372C24.245 43.2971 24.2464 43.1153 24.1231 42.8576C23.5611 41.6841 23.0208 40.4997 22.4697 39.3208C22.4101 39.1919 22.3356 39.0698 22.2043 38.827C21.4581 43.1723 19.7031 46.9166 16.8499 50.2716ZM7.18521 38.9572C6.55146 40.3315 5.91229 41.7031 5.29615 43.0855C5.24604 43.1981 5.31781 43.4124 5.40177 43.5291C6.96448 45.6929 8.53531 47.8514 10.1116 50.0043C10.1928 50.1156 10.3309 50.254 10.4474 50.258C11.1313 50.2825 11.8178 50.2702 12.6181 50.2702C9.77167 46.9302 8.01802 43.1886 7.18385 38.9572H7.18521ZM38.9716 43.3202V31.1538H37.3059V43.3202H38.9716ZM32.9306 50.235H43.3374C43.3374 49.9284 43.3577 49.6598 43.3333 49.3939C43.2859 48.8648 42.9677 48.55 42.4423 48.5487C39.5701 48.5405 36.6979 48.5405 33.8244 48.5487C33.3003 48.55 32.9794 48.8716 32.9347 49.3966C32.913 49.6625 32.9306 49.9324 32.9306 50.235ZM11.3533 4.84724C13.6324 4.15942 15.8763 4.17842 18.1269 4.84453C17.9739 3.05647 16.4531 1.70662 14.6832 1.72968C12.9553 1.75274 11.4278 3.1528 11.3533 4.84724ZM17.3415 30.7916C15.5716 31.3248 13.8761 31.3044 12.1306 30.8011C12.1306 31.3451 12.1198 31.8159 12.1388 32.2853C12.1428 32.4006 12.2186 32.5498 12.3094 32.619C13.1097 33.2349 13.9208 33.8373 14.7333 34.4464C15.5499 33.8373 16.338 33.258 17.1112 32.6584C17.225 32.5702 17.3225 32.3897 17.3306 32.2473C17.3591 31.7955 17.3415 31.3397 17.3415 30.7916ZM34.7059 46.7688H41.5594C41.5201 45.8028 40.8836 45.1096 39.9777 45.0892C38.7427 45.0607 37.5077 45.0607 36.2727 45.0892C35.3708 45.1109 34.7344 45.815 34.7046 46.7688H34.7059ZM38.1347 29.4567C39.1002 29.4567 39.8653 28.682 39.8558 27.7161C39.8464 26.7529 39.065 25.9891 38.1008 26.0013C37.1692 26.0135 36.4 26.7909 36.3986 27.7229C36.3986 28.6834 37.1732 29.458 38.1347 29.4567ZM16.0293 35.6484C16.7659 36.4325 17.4674 37.1787 18.2 37.9587C18.9353 37.1746 19.6354 36.4298 20.3694 35.647C19.6178 35.084 18.9109 34.5522 18.1986 34.0177C17.4593 34.5739 16.7605 35.0976 16.0293 35.6484ZM11.268 34.0163C10.5341 34.5671 9.82448 35.0989 9.09323 35.647C9.84208 36.4447 10.5422 37.1895 11.2667 37.9601C12.0182 37.1597 12.717 36.4135 13.4347 35.647C12.6926 35.0881 12.0047 34.5712 11.2667 34.0163H11.268ZM50.2396 34.692H45.1195C45.0897 35.5846 45.7289 36.3172 46.6185 36.3701C47.3092 36.4122 48.0052 36.4108 48.6958 36.3715C49.5774 36.3226 50.1746 35.662 50.2409 34.6906L50.2396 34.692ZM31.1499 34.696H26.0284C26.0704 35.6213 26.6608 36.3104 27.5113 36.3647C28.2344 36.4122 28.967 36.4122 29.6901 36.3647C30.5473 36.3064 31.1621 35.5806 31.1513 34.6974L31.1499 34.696ZM47.6653 29.4811C47.0018 30.6437 46.3707 31.748 45.7153 32.8971H49.6153C48.9572 31.7453 48.3329 30.6505 47.6653 29.4811ZM28.5973 29.4825C27.9324 30.6451 27.3081 31.7386 26.6554 32.8836H30.5432C29.8824 31.7291 29.2581 30.6356 28.5986 29.4825H28.5973Z" fill="#fff"/>
</g>
<defs>
<clipPath id="clip0_64_1316">
<rect width="52" height="52" fill="white"/>
</clipPath>
</defs>
</svg>
