<svg width="18" height="23" viewBox="0 0 18 23" fill="none" xmlns="http://www.w3.org/2000/svg">
<g clip-path="url(#clip0_64_1240)">
<path d="M17.6484 23H0.351562C0.258322 23 0.168901 22.9527 0.10297 22.8684C0.0370395 22.7842 0 22.6699 0 22.5508L0 0.449219C0 0.330079 0.0370395 0.215818 0.10297 0.131573C0.168901 0.0473283 0.258322 0 0.351562 0L17.6484 0C17.7417 0 17.8311 0.0473283 17.897 0.131573C17.963 0.215818 18 0.330079 18 0.449219V22.5508C18 22.6699 17.963 22.7842 17.897 22.8684C17.8311 22.9527 17.7417 23 17.6484 23ZM0.703125 22.1016H17.2969V0.898438H0.703125V22.1016Z" fill="#0062AE"/>
<path d="M2.46973 3.66113H1.97297C1.87973 3.66113 1.79031 3.6138 1.72438 3.52956C1.65845 3.44531 1.62141 3.33105 1.62141 3.21191C1.62141 3.09277 1.65845 2.97851 1.72438 2.89427C1.79031 2.81002 1.87973 2.7627 1.97297 2.7627H2.46973C2.56297 2.7627 2.65239 2.81002 2.71832 2.89427C2.78425 2.97851 2.82129 3.09277 2.82129 3.21191C2.82129 3.33105 2.78425 3.44531 2.71832 3.52956C2.65239 3.6138 2.56297 3.66113 2.46973 3.66113ZM4.58754 3.66113H4.13508C4.04184 3.66113 3.95242 3.6138 3.88649 3.52956C3.82056 3.44531 3.78352 3.33105 3.78352 3.21191C3.78352 3.09277 3.82056 2.97851 3.88649 2.89427C3.95242 2.81002 4.04184 2.7627 4.13508 2.7627H4.58754C4.68078 2.7627 4.7702 2.81002 4.83613 2.89427C4.90206 2.97851 4.9391 3.09277 4.9391 3.21191C4.9391 3.33105 4.90206 3.44531 4.83613 3.52956C4.7702 3.6138 4.68078 3.66113 4.58754 3.66113ZM6.70535 3.66113H6.29719C6.20395 3.66113 6.11453 3.6138 6.0486 3.52956C5.98266 3.44531 5.94562 3.33105 5.94562 3.21191C5.94562 3.09277 5.98266 2.97851 6.0486 2.89427C6.11453 2.81002 6.20395 2.7627 6.29719 2.7627H6.70535C6.79859 2.7627 6.88801 2.81002 6.95394 2.89427C7.01987 2.97851 7.05691 3.09277 7.05691 3.21191C7.05691 3.33105 7.01987 3.44531 6.95394 3.52956C6.88801 3.6138 6.79859 3.66113 6.70535 3.66113ZM17.6484 6.42383H0.351562C0.258322 6.42383 0.168901 6.3765 0.10297 6.29226C0.0370395 6.20801 0 6.09375 0 5.97461C0 5.85547 0.0370395 5.74121 0.10297 5.65696C0.168901 5.57272 0.258322 5.52539 0.351562 5.52539H17.6484C17.7417 5.52539 17.8311 5.57272 17.897 5.65696C17.963 5.74121 18 5.85547 18 5.97461C18 6.09375 17.963 6.20801 17.897 6.29226C17.8311 6.3765 17.7417 6.42383 17.6484 6.42383ZM16.027 3.66113H8.4593C8.36606 3.66113 8.27664 3.6138 8.2107 3.52956C8.14477 3.44531 8.10773 3.33105 8.10773 3.21191C8.10773 3.09277 8.14477 2.97851 8.2107 2.89427C8.27664 2.81002 8.36606 2.7627 8.4593 2.7627H16.027C16.1203 2.7627 16.2097 2.81002 16.2756 2.89427C16.3416 2.97851 16.3786 3.09277 16.3786 3.21191C16.3786 3.33105 16.3416 3.44531 16.2756 3.52956C16.2097 3.6138 16.1203 3.66113 16.027 3.66113ZM5.75684 23C5.6636 23 5.57417 22.9527 5.50824 22.8684C5.44231 22.7842 5.40527 22.6699 5.40527 22.5508V13.0058L4.13508 10.301L2.86523 13.0058V22.5508C2.86523 22.6699 2.82819 22.7842 2.76226 22.8684C2.69633 22.9527 2.60691 23 2.51367 23C2.42043 23 2.33101 22.9527 2.26508 22.8684C2.19915 22.7842 2.16211 22.6699 2.16211 22.5508V12.8813C2.16203 12.8 2.17942 12.7201 2.21238 12.6504L3.83379 9.19686C3.86502 9.13033 3.90921 9.07528 3.96204 9.03706C4.01487 8.99884 4.07454 8.97875 4.13525 8.97875C4.19596 8.97875 4.25564 8.99884 4.30847 9.03706C4.3613 9.07528 4.40548 9.13033 4.43672 9.19686L6.05813 12.6504C6.09109 12.7201 6.10847 12.8 6.1084 12.8813V22.5508C6.1084 22.6699 6.07136 22.7842 6.00543 22.8684C5.9395 22.9527 5.85008 23 5.75684 23Z" fill="#0062AE"/>
<path d="M5.75684 13.3306H2.51367C2.42043 13.3306 2.33101 13.2832 2.26508 13.199C2.19915 13.1147 2.16211 13.0005 2.16211 12.8813C2.16211 12.7622 2.19915 12.6479 2.26508 12.5637C2.33101 12.4795 2.42043 12.4321 2.51367 12.4321H5.75684C5.85008 12.4321 5.9395 12.4795 6.00543 12.5637C6.07136 12.6479 6.1084 12.7622 6.1084 12.8813C6.1084 13.0005 6.07136 13.1147 6.00543 13.199C5.9395 13.2832 5.85008 13.3306 5.75684 13.3306ZM5.75684 20.2373H2.51367C2.42043 20.2373 2.33101 20.19 2.26508 20.1057C2.19915 20.0215 2.16211 19.9072 2.16211 19.7881C2.16211 19.6689 2.19915 19.5547 2.26508 19.4704C2.33101 19.3862 2.42043 19.3389 2.51367 19.3389H5.75684C5.85008 19.3389 5.9395 19.3862 6.00543 19.4704C6.07136 19.5547 6.1084 19.6689 6.1084 19.7881C6.1084 19.9072 6.07136 20.0215 6.00543 20.1057C5.9395 20.19 5.85008 20.2373 5.75684 20.2373ZM15.4863 14.7119H11.1621C11.0689 14.7119 10.9794 14.6646 10.9135 14.5803C10.8476 14.4961 10.8105 14.3818 10.8105 14.2627V8.7373C10.8105 8.61816 10.8476 8.5039 10.9135 8.41966C10.9794 8.33541 11.0689 8.28809 11.1621 8.28809H15.4863C15.5796 8.28809 15.669 8.33541 15.7349 8.41966C15.8009 8.5039 15.8379 8.61816 15.8379 8.7373V14.2627C15.8379 14.3818 15.8009 14.4961 15.7349 14.5803C15.669 14.6646 15.5796 14.7119 15.4863 14.7119ZM11.5137 13.8135H15.1348V9.18652H11.5137V13.8135Z" fill="#0062AE"/>
<path d="M12.2432 20.2373H7.91895C7.82571 20.2373 7.73629 20.19 7.67036 20.1057C7.60443 20.0215 7.56739 19.9072 7.56739 19.7881V14.2627C7.56739 14.1436 7.60443 14.0293 7.67036 13.945C7.73629 13.8608 7.82571 13.8135 7.91895 13.8135H12.2432C12.3364 13.8135 12.4258 13.8608 12.4918 13.945C12.5577 14.0293 12.5947 14.1436 12.5947 14.2627V19.7881C12.5947 19.9072 12.5577 20.0215 12.4918 20.1057C12.4258 20.19 12.3364 20.2373 12.2432 20.2373ZM8.27051 19.3389H11.8916V14.7119H8.27051V19.3389ZM16.027 20.2373H13.8649C13.7717 20.2373 13.6823 20.19 13.6163 20.1057C13.5504 20.0215 13.5134 19.9072 13.5134 19.7881C13.5134 19.6689 13.5504 19.5547 13.6163 19.4704C13.6823 19.3862 13.7717 19.3389 13.8649 19.3389H16.027C16.1203 19.3389 16.2097 19.3862 16.2756 19.4704C16.3416 19.5547 16.3786 19.6689 16.3786 19.7881C16.3786 19.9072 16.3416 20.0215 16.2756 20.1057C16.2097 20.19 16.1203 20.2373 16.027 20.2373ZM16.027 17.4746H13.8649C13.7717 17.4746 13.6823 17.4273 13.6163 17.343C13.5504 17.2588 13.5134 17.1445 13.5134 17.0254C13.5134 16.9062 13.5504 16.792 13.6163 16.7077C13.6823 16.6235 13.7717 16.5762 13.8649 16.5762H16.027C16.1203 16.5762 16.2097 16.6235 16.2756 16.7077C16.3416 16.792 16.3786 16.9062 16.3786 17.0254C16.3786 17.1445 16.3416 17.2588 16.2756 17.343C16.2097 17.4273 16.1203 17.4746 16.027 17.4746ZM9.54071 11.9492H7.3786C7.28536 11.9492 7.19594 11.9019 7.13001 11.8176C7.06408 11.7334 7.02704 11.6191 7.02704 11.5C7.02704 11.3809 7.06408 11.2666 7.13001 11.1824C7.19594 11.0981 7.28536 11.0508 7.3786 11.0508H9.54071C9.63395 11.0508 9.72337 11.0981 9.7893 11.1824C9.85523 11.2666 9.89227 11.3809 9.89227 11.5C9.89227 11.6191 9.85523 11.7334 9.7893 11.8176C9.72337 11.9019 9.63395 11.9492 9.54071 11.9492ZM9.54071 9.18652H7.3786C7.28536 9.18652 7.19594 9.1392 7.13001 9.05495C7.06408 8.97071 7.02704 8.85644 7.02704 8.7373C7.02704 8.61816 7.06408 8.5039 7.13001 8.41966C7.19594 8.33541 7.28536 8.28809 7.3786 8.28809H9.54071C9.63395 8.28809 9.72337 8.33541 9.7893 8.41966C9.85523 8.5039 9.89227 8.61816 9.89227 8.7373C9.89227 8.85644 9.85523 8.97071 9.7893 9.05495C9.72337 9.1392 9.63395 9.18652 9.54071 9.18652Z" fill="#0062AE"/>
</g>
<defs>
<clipPath id="clip0_64_1240">
<rect width="18" height="23" fill="white"/>
</clipPath>
</defs>
</svg>
