<svg width="24" height="24" viewBox="0 0 24 24" fill="none" xmlns="http://www.w3.org/2000/svg">
<path d="M20.3702 14.7655C20.5725 14.5547 20.8076 14.2986 21.0545 14.0529C21.4326 13.6768 21.9467 13.6572 22.2892 13.9971C22.6296 14.3356 22.6121 14.8548 22.2389 15.2331C21.9948 15.4809 21.7395 15.7175 21.5247 15.924C21.6976 16.3791 21.8462 16.7846 22.0115 17.1838C22.0346 17.2396 22.1371 17.2934 22.2048 17.2961C22.5005 17.3087 22.7977 17.2982 23.0941 17.3024C23.6333 17.3108 24.0003 17.6521 24.001 18.1413C24.001 18.6347 23.6403 18.9697 23.0962 18.9753C22.7998 18.9788 22.5026 18.967 22.2069 18.983C22.1364 18.9865 22.0367 19.0563 22.0081 19.1212C21.9202 19.3194 21.8713 19.5344 21.7876 19.7347C21.7074 19.9266 21.6021 20.108 21.4912 20.3265C21.7332 20.5617 21.9857 20.8011 22.2313 21.0474C22.6093 21.4271 22.6331 21.9366 22.2947 22.2813C21.9509 22.6324 21.4319 22.6108 21.0433 22.222C20.8034 21.9819 20.5711 21.7335 20.366 21.5206C19.9098 21.6944 19.4962 21.8452 19.0895 22.0133C19.0344 22.0364 18.987 22.1439 18.9842 22.2137C18.9723 22.5186 18.9828 22.8243 18.9779 23.1293C18.9688 23.6367 18.6326 23.9919 18.1618 23.9989C17.6805 24.0059 17.3219 23.6486 17.3073 23.1349C17.2982 22.8299 17.3149 22.5235 17.2982 22.2192C17.294 22.1425 17.2215 22.035 17.1524 22.0029C16.9641 21.9149 16.7569 21.8696 16.5651 21.7886C16.3739 21.7077 16.1919 21.603 15.961 21.4864C15.7329 21.7237 15.4971 21.9785 15.2509 22.2234C14.8603 22.6115 14.3385 22.6324 13.9974 22.2813C13.6605 21.9352 13.6849 21.4271 14.0637 21.046C14.3029 20.8053 14.5519 20.5736 14.7814 20.3516C14.5847 19.8791 14.4027 19.4401 14.2088 18.9746C13.8893 18.9746 13.5412 18.9774 13.1938 18.9746C12.6595 18.969 12.2814 18.6194 12.2835 18.1385C12.2863 17.6591 12.6658 17.3087 13.1994 17.3017C13.5475 17.2968 13.8949 17.301 14.199 17.301C14.3922 16.8697 14.575 16.4761 14.741 16.0755C14.7633 16.0211 14.7256 15.9129 14.6796 15.8633C14.4724 15.6393 14.2492 15.4299 14.0365 15.2115C13.68 14.8444 13.6695 14.3321 14.0079 13.9964C14.3455 13.6614 14.8533 13.6761 15.223 14.0355C15.4357 14.2421 15.6471 14.45 15.8515 14.665C15.9408 14.7592 16.0077 14.7823 16.1396 14.7187C16.4674 14.561 16.8141 14.4417 17.1447 14.2888C17.2159 14.256 17.2947 14.1513 17.2989 14.0753C17.317 13.7794 17.3024 13.482 17.3073 13.1854C17.3163 12.655 17.6742 12.2733 18.152 12.2767C18.634 12.2802 18.9751 12.6564 18.98 13.1952C18.9828 13.4918 18.9737 13.7891 18.9863 14.085C18.9891 14.152 19.0456 14.2518 19.1028 14.2749C19.5025 14.4396 19.9091 14.5889 20.3723 14.7655H20.3702ZM18.1499 20.4326C19.4243 20.4326 20.4337 19.4339 20.4351 18.1713C20.4365 16.8334 19.4508 15.8668 18.1025 15.8501C16.9313 15.8354 15.8096 16.8927 15.8473 18.2055C15.8829 19.4248 16.8908 20.4319 18.1499 20.4319V20.4326Z" fill="#999999"/>
<path d="M11.4359 12.2749C8.0402 12.2652 5.30162 9.51748 5.3072 6.12562C5.31208 2.73654 8.0688 -0.00835586 11.4582 1.91138e-05C14.8518 0.00839409 17.6022 2.76585 17.591 6.14865C17.5799 9.54121 14.8232 12.2854 11.4359 12.2749ZM11.4373 10.5999C13.9073 10.6062 15.9197 8.59972 15.9162 6.13399C15.9127 3.67524 13.9191 1.6813 11.4568 1.67501C8.99375 1.66873 6.98969 3.65639 6.98132 6.11445C6.97295 8.59135 8.96236 10.5944 11.4373 10.5999Z" fill="#999999"/>
<path d="M6.59388 22.8989C5.06764 22.8989 3.5414 22.9003 2.01516 22.8989C0.804214 22.8975 0.0111006 22.1138 0.00970549 20.9085C0.00900794 20.2287 -0.0300548 19.5412 0.0536511 18.8705C0.200137 17.6925 0.88792 16.8033 1.76893 16.0573C2.92756 15.0767 4.28848 14.4807 5.72473 14.0473C7.58161 13.4868 9.48662 13.2405 11.4244 13.2488C11.9008 13.2509 12.2545 13.5811 12.2761 14.0284C12.2991 14.4974 11.9818 14.8638 11.5025 14.9162C11.3986 14.9273 11.2933 14.9245 11.1886 14.9252C9.59474 14.9336 8.02525 15.1325 6.48924 15.5631C5.18831 15.9281 3.94947 16.4348 2.89338 17.3023C2.61296 17.5326 2.36115 17.8069 2.13514 18.091C1.82333 18.4825 1.67057 18.9417 1.67964 19.4519C1.68801 19.9139 1.68034 20.3767 1.68173 20.8387C1.68243 21.1953 1.71103 21.2232 2.07515 21.2232C5.11856 21.2232 8.16197 21.2232 11.2061 21.2232C11.3016 21.2232 11.3986 21.219 11.4935 21.2281C11.9706 21.2742 12.2956 21.6406 12.2768 22.1075C12.2587 22.5548 11.9078 22.894 11.4335 22.8961C9.82004 22.901 8.20661 22.8982 6.59318 22.8982L6.59388 22.8989Z" fill="#999999"/>
</svg>
