<svg width="17" height="24" viewBox="0 0 17 24" fill="none" xmlns="http://www.w3.org/2000/svg">
<path d="M16.9942 4.36658C16.9881 4.3169 16.9763 4.26807 16.9592 4.22103C16.9592 4.22103 16.9592 4.18028 16.9592 4.16863C16.9355 4.10785 16.8999 4.05242 16.8545 4.00562L13.6 0.570688L13.5534 0.535756C13.5174 0.502048 13.4761 0.474509 13.4312 0.45425H13.3671C13.3207 0.44864 13.2738 0.44864 13.2274 0.45425H0.582192C0.427785 0.45425 0.279702 0.515588 0.17052 0.62477C0.061338 0.733952 0 0.882035 0 1.03644V22.6183C0 22.7727 0.061338 22.9208 0.17052 23.03C0.279702 23.1391 0.427785 23.2005 0.582192 23.2005H16.4178C16.5722 23.2005 16.7203 23.1391 16.8295 23.03C16.9387 22.9208 17 22.7727 17 22.6183V4.40733C17 4.40733 16.9942 4.38404 16.9942 4.36658ZM13.7397 2.4337L15.0613 3.82514H13.7397V2.4337ZM1.16438 22.0361V1.55459H12.5753V4.40733C12.5753 4.56174 12.6367 4.70982 12.7459 4.819C12.855 4.92819 13.0031 4.98952 13.1575 4.98952H15.8356V22.0361H1.16438Z" fill="#999999"/>
<path d="M6.67234 10.0488H3.3422C3.18779 10.0488 3.03971 10.1101 2.93053 10.2193C2.82135 10.3285 2.76001 10.4765 2.76001 10.631V13.9494C2.76001 14.1039 2.82135 14.2519 2.93053 14.3611C3.03971 14.4703 3.18779 14.5316 3.3422 14.5316H6.67234C6.82675 14.5316 6.97483 14.4703 7.08401 14.3611C7.19319 14.2519 7.25453 14.1039 7.25453 13.9494V10.631C7.25453 10.4765 7.19319 10.3285 7.08401 10.2193C6.97483 10.1101 6.82675 10.0488 6.67234 10.0488ZM6.09015 13.3731H3.92439V11.2131H6.09015V13.3731ZM9.08261 7.5104H13.7401C13.8946 7.5104 14.0426 7.44906 14.1518 7.33988C14.261 7.2307 14.3223 7.08262 14.3223 6.92821C14.3223 6.7738 14.261 6.62572 14.1518 6.51654C14.0426 6.40736 13.8946 6.34602 13.7401 6.34602H9.08261C8.92821 6.34602 8.78012 6.40736 8.67094 6.51654C8.56176 6.62572 8.50042 6.7738 8.50042 6.92821C8.50042 7.08262 8.56176 7.2307 8.67094 7.33988C8.78012 7.44906 8.92821 7.5104 9.08261 7.5104ZM13.7401 11.7022H9.08261C8.92821 11.7022 8.78012 11.7635 8.67094 11.8727C8.56176 11.9819 8.50042 12.13 8.50042 12.2844C8.50042 12.4388 8.56176 12.5869 8.67094 12.696C8.78012 12.8052 8.92821 12.8666 9.08261 12.8666H13.7401C13.8946 12.8666 14.0426 12.8052 14.1518 12.696C14.261 12.5869 14.3223 12.4388 14.3223 12.2844C14.3223 12.13 14.261 11.9819 14.1518 11.8727C14.0426 11.7635 13.8946 11.7022 13.7401 11.7022ZM6.67234 15.4631H3.3422C3.18779 15.4631 3.03971 15.5245 2.93053 15.6337C2.82135 15.7428 2.76001 15.8909 2.76001 16.0453V19.3638C2.76001 19.5182 2.82135 19.6663 2.93053 19.7755C3.03971 19.8847 3.18779 19.946 3.3422 19.946H6.67234C6.82675 19.946 6.97483 19.8847 7.08401 19.7755C7.19319 19.6663 7.25453 19.5182 7.25453 19.3638V16.0453C7.25453 15.8909 7.19319 15.7428 7.08401 15.6337C6.97483 15.5245 6.82675 15.4631 6.67234 15.4631ZM6.09015 18.7875H3.92439V16.6275H6.09015V18.7875ZM14.3223 17.1224H9.08261C8.92821 17.1224 8.78012 17.1837 8.67094 17.2929C8.56176 17.4021 8.50042 17.5502 8.50042 17.7046C8.50042 17.859 8.56176 18.0071 8.67094 18.1163C8.78012 18.2254 8.92821 18.2868 9.08261 18.2868H14.3223C14.4767 18.2868 14.6248 18.2254 14.734 18.1163C14.8432 18.0071 14.9045 17.859 14.9045 17.7046C14.9045 17.5502 14.8432 17.4021 14.734 17.2929C14.6248 17.1837 14.4767 17.1224 14.3223 17.1224ZM8.46549 4.49465C8.36189 4.38063 8.21733 4.31232 8.06346 4.30468C7.9096 4.29704 7.75898 4.3507 7.6446 4.4539L4.69289 7.1378L3.87782 6.28198C3.76933 6.18253 3.6272 6.12786 3.48003 6.12897C3.33286 6.13008 3.19157 6.18689 3.08459 6.28797C2.97761 6.38904 2.91289 6.52688 2.90343 6.67375C2.89398 6.82062 2.9405 6.96563 3.03364 7.07958L4.23295 8.35458C4.28774 8.41206 4.35371 8.45772 4.4268 8.48875C4.49989 8.51979 4.57855 8.53555 4.65795 8.53506C4.80224 8.53468 4.94125 8.48074 5.04802 8.38369L8.43056 5.32136C8.48747 5.26958 8.53356 5.20704 8.56616 5.13734C8.59875 5.06764 8.6172 4.99217 8.62045 4.91529C8.6237 4.83842 8.61168 4.76166 8.58508 4.68946C8.55848 4.61726 8.51784 4.55104 8.46549 4.49465Z" fill="#999999"/>
</svg>
