<svg width="50" height="53" viewBox="0 0 50 53" fill="none" xmlns="http://www.w3.org/2000/svg">
<g clip-path="url(#clip0_64_1279)">
<path d="M24.9555 52.9972C17.9811 52.9972 11.0066 52.9986 4.03221 52.9972C2.0614 52.9972 0.459031 51.8899 0.071804 50.1559C-0.0625696 49.5535 0.0154538 48.878 0.112261 48.2541C0.495153 45.7814 0.94451 43.3188 1.3274 40.8476C1.66839 38.6431 2.80985 36.9349 4.49747 35.5294C6.73992 33.662 9.2699 32.2607 11.9386 31.1205C14.1666 30.1696 16.4553 29.3535 18.7252 28.5015C19.0951 28.3624 19.267 28.2061 19.2453 27.7844C19.2049 27.0357 19.4043 26.2282 19.1846 25.547C18.9723 24.8872 18.3611 24.3508 17.9189 23.7656C16.9104 22.4318 16.2212 20.9459 15.808 19.3381C15.7242 19.0111 15.5696 18.8748 15.2705 18.7715C13.3892 18.1218 12.1712 16.3462 12.6047 13.9725C12.7752 13.036 13.3242 12.3346 14.2215 11.966C14.5408 11.8355 14.5827 11.6505 14.587 11.3565C14.6116 9.90929 14.6087 8.45926 14.7099 7.0164C14.8023 5.6768 15.3254 4.5294 16.5376 3.77498C16.7269 3.65737 16.9133 3.40494 16.9494 3.19124C17.2543 1.39699 18.4463 0.540738 20.118 0.192215C20.6093 0.0889482 21.1179 -0.00858107 21.6164 0.00432722C24.5683 0.0760399 27.5303 0.0616974 30.4691 0.311258C33.3271 0.553647 35.2907 2.84128 35.3543 5.68971C35.3962 7.54994 35.3759 9.41017 35.3673 11.2704C35.3658 11.6074 35.4265 11.7925 35.7892 11.9431C36.8902 12.3963 37.4696 13.2683 37.5216 14.443C37.6256 16.7349 36.62 18.1735 34.4931 18.8777C34.3443 18.9264 34.1767 19.1072 34.1348 19.2592C33.5366 21.4393 32.5295 23.3841 30.9113 25.0005C30.7914 25.1196 30.7321 25.3447 30.7278 25.5226C30.7076 26.2913 30.7408 27.0615 30.7104 27.8303C30.696 28.196 30.8116 28.3552 31.167 28.4771C34.1088 29.4883 37.0592 30.4951 39.8031 31.9724C41.4921 32.8817 43.1349 33.8886 44.72 34.9657C47.104 36.585 48.455 38.8353 48.7888 41.734C49.0503 44.0029 49.4303 46.2691 49.9158 48.5008C50.3897 50.6794 48.7541 52.8423 46.3108 52.9914C45.9698 53.0115 45.6259 53.0015 45.2835 53.0015C38.507 53.0015 31.7305 53.0015 24.954 53.0015L24.9555 52.9972ZM19.176 10.6365C19.1514 10.7713 19.1297 10.8559 19.1225 10.942C18.9535 12.947 18.3842 14.7944 17.0144 16.3405C16.9133 16.4552 16.87 16.6689 16.8858 16.8281C17.1344 19.2262 17.8944 21.4292 19.478 23.2995C22.5584 26.9368 27.2615 26.9669 30.3637 23.3583C32.0889 21.3503 32.8806 18.9867 32.9876 16.3649C33.0107 15.8041 32.9847 15.3537 32.5238 14.9378C32.1886 14.6352 31.914 14.2106 31.7536 13.7875C31.3765 12.7893 31.0904 11.758 30.7552 10.7455C30.6989 10.5762 30.6209 10.3338 30.4908 10.2822C29.4462 9.86913 28.5836 9.21941 27.8698 8.35742C26.6027 10.2133 25.8036 10.6379 23.6074 10.6379C22.9948 10.6379 22.3822 10.6379 21.7695 10.6379C20.9084 10.6379 20.0458 10.6379 19.1745 10.6379L19.176 10.6365ZM12.479 32.615C12.3417 32.615 12.2839 32.5978 12.242 32.6178C9.82473 33.7437 7.47391 34.9786 5.42652 36.7112C4.10012 37.8342 3.13639 39.1652 2.85319 40.9222C2.41829 43.62 1.95881 46.315 1.50079 49.0099C1.40398 49.575 1.52391 50.0799 1.87068 50.5231C2.41973 51.2273 3.16529 51.4969 4.04811 51.4969C10.0472 51.4912 16.0464 51.4941 22.0455 51.4926C22.1943 51.4926 22.3432 51.4725 22.5844 51.4553C22.346 51.2775 22.1914 51.1584 22.0339 51.0437C18.5894 48.5438 15.1433 46.0453 11.6973 43.544C10.9113 42.9732 10.8752 42.7881 11.378 41.9534C12.255 40.5005 13.1321 39.0462 14.038 37.5459C13.0179 37.1429 12.0354 36.7528 11.0529 36.3684C10.1571 36.0185 10.0342 35.5781 10.6411 34.8409C11.2393 34.1138 11.8403 33.3895 12.4804 32.615H12.479ZM27.458 51.3822L27.4811 51.4941C27.6733 51.4941 27.8655 51.4941 28.0562 51.4941C33.0107 51.4941 37.9666 51.4941 42.9211 51.4941C43.9845 51.4941 45.048 51.5098 46.11 51.4883C47.7195 51.4553 48.6717 50.2635 48.3986 48.6958C48.0389 46.6362 47.5852 44.5838 47.3887 42.5085C47.1141 39.627 45.8672 37.3796 43.4167 35.8564C41.5759 34.7104 39.6499 33.6993 37.76 32.6336C37.7022 32.6006 37.6155 32.6207 37.4537 32.6092C38.1429 33.4354 38.7786 34.1869 39.4028 34.9471C39.8753 35.5222 39.7554 36.0156 39.0777 36.3053C38.6645 36.4817 38.2411 36.6337 37.8236 36.7973C37.1979 37.0439 36.5738 37.2906 35.9207 37.5488C36.8584 39.105 37.7571 40.5909 38.6515 42.0782C39.0517 42.7451 38.9968 43.0119 38.364 43.4751C37.4349 44.1535 36.5015 44.8233 35.571 45.4989C32.8662 47.4595 30.1628 49.4216 27.458 51.3822ZM16.5116 14.5204C16.6055 14.3426 16.6301 14.2967 16.6547 14.2508C16.7284 14.1074 16.8093 13.9682 16.8757 13.8219C17.3944 12.6989 17.6155 11.5114 17.6314 10.2822C17.643 9.32555 17.8366 9.13622 18.8191 9.13479C20.5486 9.13479 22.2796 9.14196 24.0091 9.13192C25.5725 9.12332 26.4596 8.35169 26.6576 6.8156C26.7154 6.37098 26.8844 6.05545 27.3497 5.99091C27.838 5.9235 28.2917 5.97656 28.533 6.50437C29.1269 7.80954 30.1354 8.61272 31.5123 9.03009C31.7695 9.10754 32.0166 9.45606 32.1235 9.73431C32.268 10.1101 32.2507 10.5432 32.3446 10.9434C32.5671 11.8929 32.8156 12.8352 33.5063 13.7474C33.6407 13.1034 33.8343 12.5856 33.8429 12.065C33.8791 10.08 33.8718 8.09352 33.8531 6.10851C33.8285 3.38056 32.19 1.75268 29.4447 1.67523C27.7875 1.62934 26.1316 1.51316 24.4758 1.50886C23.093 1.50599 21.7031 1.55189 20.3319 1.70535C19.3075 1.82009 18.5836 2.41244 18.429 3.52542C18.3408 4.1651 17.9883 4.66422 17.4349 4.9898C16.6431 5.45449 16.2963 6.18023 16.2227 7.03217C16.0146 9.47471 15.9236 11.9187 16.5102 14.519L16.5116 14.5204ZM22.9529 49.8461C22.9847 49.8275 23.015 49.8088 23.0468 49.7916C20.381 43.8552 17.7152 37.9174 15.022 31.9194C14.0741 33.0653 13.1913 34.1338 12.281 35.2368C13.2433 35.614 14.129 35.9611 15.0162 36.3082C16.0233 36.7026 16.1273 37.0153 15.5609 37.9533C14.7373 39.3187 13.9123 40.6812 13.0902 42.0481C13.002 42.1958 12.9283 42.3521 12.8416 42.5171C16.2342 44.9768 19.5935 47.4122 22.9529 49.8475V49.8461ZM34.928 31.948C32.2218 37.9719 29.5647 43.8853 26.9075 49.7973C26.9393 49.816 26.9725 49.8346 27.0043 49.8533C30.3738 47.4093 33.7432 44.9653 37.13 42.5085C37.0202 42.3134 36.9393 42.1571 36.8483 42.0065C35.9972 40.5966 35.1419 39.1882 34.2937 37.7754C33.8689 37.0669 34.0048 36.6753 34.7821 36.3684C35.7285 35.9941 36.6763 35.6283 37.6805 35.2368C36.7558 34.1324 35.8744 33.0797 34.928 31.948ZM20.7466 26.3731C20.7466 26.964 20.7682 27.4775 20.7393 27.9895C20.7162 28.3911 20.8347 28.698 21.1049 28.9992C21.9314 29.92 22.7304 30.8637 23.5395 31.7989C24.0048 32.3367 24.4715 32.8746 24.9526 33.4296C25.0465 33.3493 25.1043 33.3091 25.1477 33.2589C26.4379 31.7673 27.7282 30.2757 29.0142 28.7812C29.0922 28.6908 29.189 28.5732 29.1919 28.4671C29.2078 27.783 29.2005 27.0988 29.2005 26.3444C26.357 27.935 23.58 27.9422 20.7466 26.3745V26.3731ZM26.1374 34.4307C27.7383 35.3874 29.2858 36.3125 30.8809 37.2648C31.8288 35.1493 32.7593 33.0768 33.7042 30.9684C32.5801 30.5669 31.5384 30.1825 30.485 29.8311C30.3507 29.7866 30.0964 29.8669 29.9996 29.9774C28.7223 31.4288 27.4624 32.8961 26.1388 34.4293L26.1374 34.4307ZM23.8184 34.4336C22.4876 32.8932 21.2031 31.4016 19.9085 29.92C19.8363 29.8368 19.6499 29.7708 19.5531 29.8024C18.468 30.1624 17.3887 30.5439 16.2515 30.9383C17.2052 33.0696 18.1328 35.1464 19.0792 37.2634C20.6729 36.3125 22.2102 35.3946 23.8198 34.4336H23.8184ZM28.2253 37.4341C27.5028 38.1555 26.8281 38.8497 26.1273 39.518C25.8976 39.7375 25.8643 39.9254 25.964 40.2165C26.4365 41.5848 26.8844 42.9602 27.3453 44.3314C27.3858 44.4504 27.445 44.5623 27.5245 44.743C28.455 42.6677 29.3508 40.6697 30.2553 38.6503C29.5618 38.2358 28.9173 37.8486 28.2238 37.4341H28.2253ZM22.4587 44.7961C23.0136 43.1166 23.5251 41.5791 24.025 40.0372C24.0568 39.9383 24.051 39.7705 23.9874 39.7074C23.2361 38.9443 22.4703 38.1957 21.7103 37.4441C21.0139 37.8629 20.3622 38.2559 19.699 38.656C20.6194 40.7042 21.5109 42.6877 22.4587 44.7975V44.7961ZM24.9772 50.3639C25.519 49.1634 26.0059 48.1092 26.4639 47.0436C26.5319 46.8872 26.4957 46.6577 26.4408 46.4828C26.1692 45.6136 25.8759 44.7502 25.5869 43.8853C25.4034 43.3375 25.2141 42.7924 24.9931 42.1441C24.9093 42.3148 24.8746 42.3708 24.8544 42.431C24.3949 43.8036 23.934 45.1762 23.4832 46.5502C23.4413 46.6778 23.4124 46.8471 23.4615 46.9618C23.9354 48.0547 24.4281 49.1404 24.9772 50.3639ZM26.8281 36.6036C26.2833 36.2766 25.7516 35.9439 25.204 35.6398C25.0899 35.5767 24.8847 35.5667 24.7749 35.6269C24.2128 35.9367 23.6695 36.2795 23.1595 36.585C23.7895 37.2204 24.4021 37.8357 24.9945 38.4323C25.5725 37.8557 26.1779 37.2519 26.8281 36.6036ZM34.3183 17.2771C35.493 16.8755 36.0261 16.0034 36.0146 14.7284C36.0088 13.9453 35.7747 13.5695 35.048 13.3314C34.8081 14.6294 34.5712 15.9102 34.3169 17.2785L34.3183 17.2771ZM14.7561 13.3787C13.9036 13.885 14.0004 14.6481 14.0741 15.3552C14.155 16.1483 14.6087 16.7292 15.2763 17.125C15.3312 17.1021 15.3861 17.0777 15.441 17.0547C15.2185 15.8557 14.9945 14.6552 14.7575 13.3787H14.7561Z" fill="#0474BD"/>
</g>
<defs>
<clipPath id="clip0_64_1279">
<rect width="50" height="53" fill="white"/>
</clipPath>
</defs>
</svg>
