<svg width="17" height="17" viewBox="0 0 17 17" fill="none" xmlns="http://www.w3.org/2000/svg">
<g clip-path="url(#clip0_42_965)">
<path d="M2.21685 4.10662C2.26001 4.01698 2.30023 3.92594 2.34685 3.83855C2.47537 3.5973 2.65156 3.39748 2.88343 3.25145C3.30433 2.98645 3.72551 2.72186 4.15057 2.46397C4.50602 2.24869 4.87791 2.18026 5.23802 2.44053C5.37648 2.54059 5.49743 2.68044 5.59072 2.82549C5.97887 3.4287 6.35459 4.04028 6.73301 4.64958C6.86688 4.86521 6.96483 5.0921 6.94562 5.35569C6.92464 5.64423 6.78541 5.87069 6.55568 6.02626C6.1661 6.29054 5.7634 6.53475 5.36527 6.78582C5.10665 6.94886 5.107 6.95365 5.16885 7.2537C5.33409 8.05826 5.69946 8.779 6.10186 9.48366C6.50506 10.1896 6.97884 10.8455 7.55301 11.4229C7.75054 11.6217 7.9733 11.7959 8.18496 11.9806C8.28231 12.0658 8.37683 12.0376 8.47443 11.9758C8.8502 11.7384 9.22738 11.5027 9.60447 11.2675C9.80123 11.1448 10.0099 11.0554 10.2472 11.0598C10.5347 11.0654 10.7592 11.199 10.9406 11.4126C10.9973 11.4793 11.0469 11.5531 11.0939 11.6273C11.4688 12.2235 11.8467 12.8182 12.2123 13.4198C12.3045 13.5715 12.3845 13.741 12.4213 13.9128C12.5029 14.2921 12.3496 14.6058 12.0425 14.8174C11.5825 15.1342 11.1079 15.4307 10.6295 15.719C10.3488 15.8882 10.031 15.9419 9.70251 15.9197C9.67825 15.918 9.65306 15.9267 9.62864 15.9305L9.06221 15.7997C9.03145 15.7839 9.00092 15.7671 8.96957 15.7522C8.63204 15.595 8.27839 15.4652 7.95973 15.2764C6.97568 14.6935 6.13971 13.9275 5.38286 13.0776C4.01898 11.5464 3.04841 9.79131 2.45969 7.82737C2.23854 7.08923 2.0944 6.33445 2.06023 5.56306C2.04783 5.2842 2.06912 5.00371 2.07502 4.72401C2.12258 4.51803 2.17014 4.31206 2.21762 4.10643L2.21685 4.10662Z" fill="#0474BD"/>
<path d="M9.47234 3.06185C9.59287 2.7485 9.71693 2.42618 9.84056 2.10412C12.9979 3.28409 15.0058 6.49424 14.7874 9.75718C14.4435 9.73752 14.0994 9.71821 13.7659 9.69913C13.7541 6.56996 12.3342 4.367 9.47234 3.06185Z" fill="#0474BD"/>
<path d="M8.726 5.67332C8.85071 5.3497 8.97434 5.02765 9.09824 4.70601C11.1319 5.4621 12.2282 7.53562 12.072 9.31523C11.7326 9.29626 11.3921 9.27705 11.0425 9.25716C11.0427 7.56794 10.2694 6.37523 8.72565 5.67324L8.726 5.67332Z" fill="#0474BD"/>
</g>
<defs>
<clipPath id="clip0_42_965">
<rect width="13.5196" height="13.5196" fill="white" transform="translate(3.04175 0.534241) rotate(13.0019)"/>
</clipPath>
</defs>
</svg>
