<svg width="40" height="49" viewBox="0 0 40 49" fill="none" xmlns="http://www.w3.org/2000/svg">
<g clip-path="url(#clip0_64_1293)">
<path d="M7.39689 48.4849C7.1105 48.4268 6.82528 48.3639 6.53888 48.3105C2.716 47.587 0.200668 44.7903 0.0328231 40.8704C-0.12798 37.1236 0.28283 33.4302 1.6925 29.9219C2.60215 27.6565 3.92378 25.6983 6.13746 24.5004C7.5037 23.7615 8.9697 23.4128 10.5014 23.4424C10.985 23.4519 11.4933 23.6998 11.9346 23.9418C12.6459 24.332 13.3043 24.8183 13.9945 25.2488C18.0075 27.7526 22.0229 27.7502 26.0324 25.2405C26.5899 24.8918 27.158 24.555 27.6803 24.1588C28.6405 23.4318 29.6957 23.3416 30.8365 23.5101C33.9481 23.9714 36.1466 25.6948 37.629 28.4429C38.9518 30.8956 39.5481 33.5607 39.8122 36.3052C39.9483 37.7155 40.0129 39.1387 39.9953 40.5549C39.9448 44.7844 37.0726 47.9322 32.9082 48.3959C32.8049 48.4078 32.7051 48.454 32.6042 48.4849H7.39689ZM20.0052 45.6443V45.6371C23.9713 45.6371 27.9386 45.6727 31.9046 45.6265C35.2005 45.5885 37.2241 43.4643 37.1971 40.1374C37.1865 38.8766 37.136 37.6111 36.9987 36.3586C36.7499 34.1098 36.2886 31.9097 35.2099 29.8887C34.0913 27.7929 32.4692 26.4361 30.029 26.3008C29.813 26.289 29.5642 26.3518 29.3776 26.4621C28.7731 26.8215 28.1933 27.2236 27.5982 27.6008C23.1638 30.4117 18.5721 30.7664 13.8501 28.4191C12.7492 27.8724 11.7444 27.1299 10.6904 26.4859C10.5355 26.391 10.35 26.2748 10.1845 26.2819C8.66805 26.3507 7.30768 26.8322 6.21845 27.9412C5.31349 28.8615 4.68202 29.9669 4.22074 31.1661C3.0423 34.2344 2.75826 37.4474 2.83572 40.696C2.87798 42.4716 3.63739 43.9233 5.19729 44.8555C6.23723 45.4758 7.38867 45.6443 8.57533 45.6431C12.3853 45.6419 16.1964 45.6431 20.0064 45.6431L20.0052 45.6443Z" fill="#fff"/>
<path d="M31.2663 11.6661C31.2862 18.1075 26.1605 23.3001 19.7284 23.3558C13.3878 23.4104 8.18342 18.1751 8.15056 11.7099C8.11652 5.24475 13.2951 -0.00237131 19.7084 8.03972e-07C26.1088 0.00237292 31.2451 5.18782 31.2663 11.6661ZM19.7061 20.5164C24.556 20.52 28.4504 16.5858 28.4563 11.6779C28.461 6.77476 24.5689 2.84179 19.7096 2.83942C14.8491 2.83705 10.9628 6.7629 10.9617 11.6744C10.9605 16.5799 14.8491 20.5129 19.7061 20.5152V20.5164Z" fill="#fff"/>
</g>
<defs>
<clipPath id="clip0_64_1293">
<rect width="40" height="48.4848" fill="white"/>
</clipPath>
</defs>
</svg>
