<svg width="14" height="14" viewBox="0 0 14 14" fill="none" xmlns="http://www.w3.org/2000/svg">
<g clip-path="url(#clip0_42_4642)">
<path d="M0.000365135 3.52734C0.0171613 3.47193 0.0357832 3.41687 0.0507537 3.36073C0.227479 2.7001 0.81206 2.24364 1.49413 2.24328C3.48923 2.24146 5.48396 2.24255 7.47906 2.24292C7.7467 2.24292 7.92562 2.40771 7.92562 2.65161C7.92562 2.89552 7.7467 3.06177 7.47979 3.06177C5.5212 3.06213 3.56262 3.06177 1.60404 3.06177C1.09212 3.06177 0.819363 3.33411 0.819363 3.84489C0.819363 6.69739 0.819363 9.54989 0.819363 12.4024C0.819363 12.9037 1.0954 13.1797 1.59637 13.1797C4.44771 13.1797 7.29905 13.1797 10.1504 13.1797C10.6601 13.1797 10.9329 12.9055 10.9329 12.3944C10.9329 10.4351 10.9329 8.47547 10.9329 6.5162C10.9329 6.18114 11.2294 5.97224 11.5145 6.10786C11.6726 6.18297 11.7519 6.31312 11.7519 6.49031C11.7519 6.98687 11.7519 7.4838 11.7519 7.98036C11.7519 9.45693 11.7376 10.9335 11.7573 12.4093C11.769 13.2912 11.1278 13.8961 10.5009 13.9785C10.4892 13.9799 10.4786 13.9923 10.4677 14H1.28491C1.26519 13.9912 1.24584 13.9785 1.22503 13.9741C0.651766 13.8502 0.269104 13.5089 0.0722967 12.9584C0.0438162 12.8789 0.0240989 12.7961 0 12.7152C0 9.65271 0 6.59021 0 3.52771L0.000365135 3.52734Z" fill="#0474BD"/>
<path d="M12.4359 -1.62757e-06C12.727 0.0714567 12.9387 0.258853 13.1374 0.469946C13.3185 0.662082 13.5109 0.843644 13.696 1.03213C14.0973 1.44083 14.1042 2.01651 13.6982 2.42375C11.6557 4.47161 9.61017 6.51729 7.56139 8.55896C7.48326 8.63698 7.36459 8.69385 7.25541 8.71719C6.64272 8.84917 6.02746 8.96766 5.41294 9.09052C5.09308 9.15469 4.8426 8.90458 4.9065 8.58594C5.03064 7.96687 5.14968 7.34635 5.28186 6.72875C5.30413 6.62411 5.36292 6.51146 5.43814 6.43599C7.47632 4.38995 9.51633 2.34573 11.5647 0.309894C11.7031 0.172446 11.9072 0.101717 12.0807 -0.000366211C12.199 -0.000366211 12.3176 -0.000366211 12.4359 -0.000366211V-1.62757e-06ZM11.0776 1.9137C11.0437 1.96146 11.0174 2.0114 10.9794 2.04969C9.44513 3.58677 7.91265 5.12604 6.36996 6.65474C6.16001 6.86255 6.0103 7.0762 5.98657 7.37297C5.97926 7.46302 5.95224 7.55125 5.93508 7.64021C5.90332 7.80719 5.87228 7.97417 5.83978 8.14734C5.88323 8.14734 5.90624 8.15099 5.92742 8.14661C6.2659 8.07917 6.60474 8.01427 6.9414 7.9388C7.01041 7.92312 7.08124 7.87646 7.13236 7.82542C8.74041 6.22052 10.3466 4.61307 11.9525 3.00635C11.9897 2.96917 12.0252 2.93052 12.0584 2.89552C11.7353 2.57213 11.4234 2.26005 11.0773 1.9137H11.0776ZM11.7013 1.32125C12.0332 1.65338 12.3476 1.96802 12.67 2.29068C12.815 2.14521 12.969 1.99172 13.1217 1.83604C13.1914 1.76495 13.1885 1.69167 13.1177 1.62094C12.8697 1.37302 12.6222 1.12547 12.3746 0.877186C12.3045 0.806821 12.2322 0.801717 12.1599 0.871717C12.0036 1.02338 11.8488 1.17651 11.7017 1.32088L11.7013 1.32125Z" fill="#0474BD"/>
</g>
<defs>
<clipPath id="clip0_42_4642">
<rect width="14" height="14" fill="white"/>
</clipPath>
</defs>
</svg>
