<svg width="50" height="49" viewBox="0 0 50 49" fill="none" xmlns="http://www.w3.org/2000/svg">
<path d="M25.0188 48.928C23.6108 48.928 22.5228 48.544 21.7548 47.776C20.9868 46.944 20.6028 45.824 20.6028 44.416V28.672H5.14675C3.80275 28.672 2.74675 28.32 1.97875 27.616C1.21075 26.848 0.82675 25.792 0.82675 24.448C0.82675 23.104 1.21075 22.08 1.97875 21.376C2.74675 20.608 3.80275 20.224 5.14675 20.224H20.6028V4.96C20.6028 3.552 20.9868 2.464 21.7548 1.696C22.5228 0.927998 23.6428 0.543999 25.1148 0.543999C26.5228 0.543999 27.5788 0.927998 28.2828 1.696C29.0508 2.464 29.4348 3.552 29.4348 4.96V20.224H44.8908C46.2988 20.224 47.3548 20.608 48.0588 21.376C48.8268 22.08 49.2108 23.104 49.2108 24.448C49.2108 25.792 48.8268 26.848 48.0588 27.616C47.3548 28.32 46.2988 28.672 44.8908 28.672H29.4348V44.416C29.4348 45.824 29.0508 46.944 28.2828 47.776C27.5788 48.544 26.4908 48.928 25.0188 48.928Z" fill="#0474BD"/>
</svg>
