<svg width="11" height="12" viewBox="0 0 11 12" fill="none" xmlns="http://www.w3.org/2000/svg">
<g clip-path="url(#clip0_71_673)">
<path d="M2.37108 12.0003C2.1359 11.9445 1.91664 11.8617 1.73934 11.6939C1.50109 11.4687 1.42117 11.1873 1.39514 10.8788C1.29316 9.66485 1.18629 8.4512 1.08187 7.23756C0.996735 6.2455 0.912829 5.25345 0.827698 4.2614C0.807487 4.02396 0.788194 3.78651 0.759409 3.55024C0.754203 3.50797 0.713475 3.45133 0.673665 3.43401C0.241272 3.2444 -0.0337205 2.82939 0.00333301 2.40938C0.0465111 1.92157 0.367438 1.54911 0.850052 1.43905C0.955701 1.41498 1.06809 1.4097 1.17741 1.40911C1.71515 1.40617 2.25319 1.40794 2.79092 1.40764C2.83471 1.40764 2.8785 1.40764 2.93362 1.40764C2.93362 1.29582 2.93271 1.19544 2.93362 1.09476C2.94036 0.45727 3.41042 0.00468309 4.07677 0.00262854C5.02608 -0.000306519 5.97538 -0.000306519 6.92499 0.00262854C7.59135 0.00468309 8.06141 0.457563 8.06814 1.09506C8.06906 1.19573 8.06814 1.29611 8.06814 1.40794C8.12357 1.40794 8.16705 1.40794 8.21084 1.40794C8.76083 1.40794 9.31112 1.40588 9.8611 1.40852C10.3988 1.41116 10.8061 1.69997 10.9565 2.17956C11.1093 2.6659 10.8481 3.21271 10.3596 3.41611C10.2791 3.44956 10.2414 3.48508 10.2341 3.57313C10.167 4.39025 10.0948 5.20708 10.0234 6.02391C9.95328 6.82899 9.88254 7.63438 9.81303 8.43946C9.74382 9.24073 9.67002 10.042 9.60969 10.8439C9.58029 11.2366 9.47066 11.5864 9.10809 11.808C8.96447 11.8958 8.79053 11.9378 8.63038 12.0003H2.37108ZM1.49925 3.52353C1.55713 4.19918 1.61348 4.86779 1.67135 5.5361C1.74883 6.43071 1.82784 7.32531 1.90531 8.21992C1.98218 9.11071 2.05598 10.0018 2.13498 10.8923C2.16162 11.1926 2.28687 11.297 2.59922 11.297C4.53458 11.297 6.46963 11.297 8.40499 11.297C8.44174 11.297 8.47849 11.2982 8.51493 11.2956C8.69254 11.2818 8.82636 11.1638 8.85331 10.9947C8.86372 10.9293 8.86923 10.8629 8.87475 10.7969C8.91884 10.2836 8.96233 9.76993 9.00673 9.25658C9.07686 8.44357 9.14759 7.63056 9.21833 6.81784C9.27989 6.1099 9.34205 5.40197 9.40329 4.69403C9.43698 4.30602 9.46913 3.918 9.50251 3.52382H1.49925V3.52353ZM5.50104 2.81383C6.93143 2.81383 8.36151 2.81383 9.7919 2.81383C9.84089 2.81383 9.8902 2.81618 9.93858 2.8109C10.1903 2.7836 10.341 2.53177 10.2326 2.31546C10.1517 2.15403 10.006 2.10942 9.82834 2.10971C6.94337 2.11147 4.0584 2.11088 1.17312 2.11118C1.13638 2.11118 1.09963 2.11 1.06319 2.11382C0.875469 2.13407 0.733686 2.28493 0.733686 2.4625C0.733686 2.64007 0.875469 2.79123 1.06349 2.8109C1.11188 2.81589 1.16118 2.81383 1.21018 2.81383C2.64056 2.81383 4.07065 2.81383 5.50104 2.81383ZM7.33473 1.40383C7.33473 1.29552 7.33534 1.19867 7.33473 1.10152C7.33258 0.843524 7.18896 0.705576 6.91826 0.704695C6.57222 0.703521 6.22618 0.704695 5.88015 0.704695C5.2778 0.704695 4.67514 0.704108 4.07279 0.704989C3.85874 0.705282 3.69919 0.81476 3.67623 0.995853C3.65938 1.12881 3.67286 1.26529 3.67286 1.40383H7.33473Z" fill="black"/>
<path d="M3.85144 7.41044C3.90411 8.22433 3.95678 9.03793 4.00914 9.85182C4.01711 9.97656 4.02997 10.101 4.0318 10.2257C4.03456 10.433 3.87777 10.5897 3.67229 10.5932C3.47294 10.5967 3.31401 10.4515 3.30053 10.2481C3.23347 9.21609 3.16824 8.18412 3.10118 7.15244C3.0482 6.33855 2.99369 5.52495 2.9401 4.71135C2.93735 4.6685 2.93429 4.62565 2.93459 4.5828C2.93735 4.38087 3.08801 4.22736 3.28859 4.2212C3.48825 4.21504 3.65208 4.35915 3.66586 4.56049C3.70077 5.07442 3.73231 5.58835 3.76569 6.10257C3.79387 6.53872 3.82265 6.97487 3.85113 7.41073L3.85144 7.41044Z" fill="black"/>
<path d="M7.01103 9.58268C7.09585 8.25486 7.18068 6.92674 7.26581 5.59892C7.28725 5.26403 7.31205 4.92943 7.33318 4.59454C7.34757 4.3659 7.50038 4.21386 7.71351 4.22061C7.93094 4.22736 8.07946 4.39349 8.06537 4.62917C8.03352 5.17069 7.99647 5.71163 7.96125 6.25314C7.91532 6.95785 7.86938 7.66256 7.82345 8.36756C7.78242 8.99831 7.74322 9.62935 7.69973 10.2598C7.68595 10.4603 7.51661 10.6023 7.31664 10.5926C7.11637 10.5829 6.96785 10.4289 6.96999 10.2252C6.97122 10.116 6.98377 10.0071 6.99082 9.8982C6.99755 9.79312 7.00337 9.68775 7.0095 9.58268C7.01011 9.58268 7.01042 9.58268 7.01103 9.58268Z" fill="black"/>
<path d="M5.13431 7.40692C5.13431 6.47358 5.13339 5.54023 5.13492 4.60688C5.13523 4.33186 5.37041 4.15634 5.62029 4.24205C5.76912 4.29312 5.84843 4.39937 5.86558 4.54817C5.86987 4.58692 5.86772 4.62625 5.86772 4.66528C5.86772 6.49295 5.86772 8.32061 5.86772 10.1483C5.86772 10.4292 5.73268 10.5929 5.50117 10.5929C5.26966 10.5929 5.13461 10.4292 5.13461 10.1483C5.13461 9.23429 5.13461 8.32061 5.13461 7.40663L5.13431 7.40692Z" fill="black"/>
</g>
<defs>
<clipPath id="clip0_71_673">
<rect width="11" height="12" fill="white"/>
</clipPath>
</defs>
</svg>
