<svg width="100" height="47" viewBox="0 0 100 47" fill="none" xmlns="http://www.w3.org/2000/svg">
<path d="M95.2101 45.2111H35.8362C34.1104 45.2111 32.7113 43.812 32.7113 42.0862V4.58656C32.7113 2.86078 34.1104 1.46167 35.8362 1.46167H95.2101C96.9359 1.46167 98.335 2.86078 98.335 4.58656V42.0858C98.335 43.8118 96.9359 45.2111 95.2101 45.2111Z" fill="#FFE1A0"/>
<path d="M35.8362 45.2112H95.2101C96.9359 45.2112 98.335 43.8121 98.335 42.0863V4.58667L72.2186 24.8059C68.2766 27.8577 62.7697 27.8577 58.8275 24.8059L32.7113 4.58667V42.0859C32.7113 43.8119 34.1104 45.2112 35.8362 45.2112Z" fill="#F7D291"/>
<path d="M65.5231 27.1881C63.237 27.1881 60.951 26.4498 59.0435 24.9731L32.7112 4.58687V10.5148L56.174 28.6796C58.8359 30.7407 62.1563 31.8757 65.5231 31.8757C68.8899 31.8757 72.2101 30.7407 74.8723 28.6796L98.3351 10.5146V4.58667L72.0027 24.9729C70.0955 26.4498 67.8093 27.1881 65.5231 27.1881Z" fill="#F0C382"/>
<path d="M95.2102 0H35.8363C33.307 0 31.2495 2.05773 31.2495 4.58676V42.086C31.2495 44.6153 33.3072 46.6728 35.8363 46.6728H95.2102C97.7394 46.6728 99.7969 44.6151 99.7969 42.086V4.58676C99.7969 2.05753 97.7392 0 95.2102 0ZM35.8363 2.92374H95.2102C95.907 2.92374 96.5042 3.35489 96.7512 3.9642L71.1077 23.8172C67.8196 26.3628 63.2264 26.3628 59.9384 23.8172L34.2953 3.9642C34.5422 3.35489 35.1394 2.92374 35.8363 2.92374ZM95.2102 43.7493H35.8363C35.1394 43.7493 34.5422 43.3181 34.2953 42.7088L52.3558 28.7263C52.9941 28.232 53.1111 27.3138 52.6168 26.6754C52.1225 26.0371 51.2044 25.9201 50.5659 26.4144L34.1731 39.1056V7.56741L58.1485 26.1291C60.3195 27.8098 62.9212 28.6503 65.5229 28.6503C68.1247 28.6503 70.7264 27.8098 72.8974 26.1291L96.8732 7.56741V39.1054L80.4804 26.4142C79.842 25.9201 78.9238 26.0369 78.4295 26.6752C77.9352 27.3136 78.0521 28.2318 78.6905 28.7261L96.751 42.7086C96.504 43.3177 95.907 43.7493 95.2102 43.7493Z" fill="black"/>
<path d="M26.4615 26.5616H7.71175C6.90441 26.5616 6.24988 27.2162 6.24988 28.0235C6.24988 28.8309 6.90441 29.4854 7.71175 29.4854H26.4615C27.2688 29.4854 27.9233 28.8309 27.9233 28.0235C27.9233 27.2162 27.2688 26.5616 26.4615 26.5616Z" fill="black"/>
<path d="M26.4614 34.374H1.46187C0.654527 34.374 0 35.0286 0 35.8359C0 36.6432 0.654527 37.2978 1.46187 37.2978H26.4614C27.2687 37.2978 27.9233 36.6432 27.9233 35.8359C27.9233 35.0286 27.2687 34.374 26.4614 34.374Z" fill="black"/>
<path d="M26.4615 18.7499H13.9617C13.1544 18.7499 12.4999 19.4044 12.4999 20.2117C12.4999 21.0191 13.1544 21.6736 13.9617 21.6736H26.4615C27.2688 21.6736 27.9234 21.0191 27.9234 20.2117C27.9234 19.4044 27.2688 18.7499 26.4615 18.7499Z" fill="black"/>
<path d="M26.4614 10.9371H20.2114C19.404 10.9371 18.7495 11.5917 18.7495 12.399C18.7495 13.2063 19.404 13.8609 20.2114 13.8609H26.4614C27.2687 13.8609 27.9232 13.2063 27.9232 12.399C27.9232 11.5917 27.2687 10.9371 26.4614 10.9371Z" fill="black"/>
</svg>
