<svg width="82" height="94" viewBox="0 0 82 94" fill="none" xmlns="http://www.w3.org/2000/svg">
<path d="M29.056 88.144C28.5547 88.144 28.0693 88.1013 27.6 88.016C27.1307 87.9413 26.688 87.824 26.272 87.664C25.856 87.504 25.4827 87.3067 25.152 87.072C25.0133 86.976 24.912 86.8587 24.848 86.72C24.7947 86.5813 24.7787 86.448 24.8 86.32C24.832 86.1813 24.8907 86.064 24.976 85.968C25.072 85.872 25.184 85.8133 25.312 85.792C25.44 85.7707 25.5787 85.8133 25.728 85.92C26.2187 86.2507 26.7307 86.4907 27.264 86.64C27.808 86.7893 28.4053 86.864 29.056 86.864C29.9947 86.864 30.6827 86.6933 31.12 86.352C31.568 86.0107 31.792 85.5627 31.792 85.008C31.792 84.5493 31.632 84.192 31.312 83.936C30.992 83.6693 30.4533 83.4613 29.696 83.312L28 82.96C26.9973 82.7467 26.2453 82.3947 25.744 81.904C25.2533 81.4133 25.008 80.7573 25.008 79.936C25.008 79.4347 25.1093 78.9813 25.312 78.576C25.5147 78.16 25.8027 77.8027 26.176 77.504C26.5493 77.2053 26.9867 76.976 27.488 76.816C28 76.656 28.5653 76.576 29.184 76.576C29.8453 76.576 30.464 76.6667 31.04 76.848C31.6267 77.0293 32.1547 77.296 32.624 77.648C32.752 77.744 32.8373 77.8613 32.88 78C32.9227 78.128 32.928 78.256 32.896 78.384C32.8747 78.512 32.816 78.6187 32.72 78.704C32.6347 78.7893 32.5227 78.8373 32.384 78.848C32.256 78.8587 32.112 78.8107 31.952 78.704C31.5253 78.4053 31.088 78.192 30.64 78.064C30.192 77.9253 29.7013 77.856 29.168 77.856C28.624 77.856 28.1493 77.9413 27.744 78.112C27.3493 78.2827 27.04 78.5227 26.816 78.832C26.6027 79.1307 26.496 79.4827 26.496 79.888C26.496 80.3787 26.6453 80.7627 26.944 81.04C27.2427 81.3173 27.744 81.5307 28.448 81.68L30.128 82.016C31.1947 82.24 31.984 82.5867 32.496 83.056C33.0187 83.5147 33.28 84.1333 33.28 84.912C33.28 85.4027 33.1787 85.8453 32.976 86.24C32.784 86.6347 32.5067 86.976 32.144 87.264C31.7813 87.5413 31.3387 87.76 30.816 87.92C30.2933 88.0693 29.7067 88.144 29.056 88.144ZM35.9546 88.112C35.7413 88.112 35.576 88.048 35.4586 87.92C35.3413 87.792 35.2826 87.6213 35.2826 87.408V77.312C35.2826 77.088 35.3413 76.9173 35.4586 76.8C35.5866 76.672 35.7573 76.608 35.9706 76.608C36.1626 76.608 36.312 76.6453 36.4186 76.72C36.536 76.7947 36.6426 76.9227 36.7386 77.104L41.0266 85.152H40.5306L44.8186 77.104C44.9146 76.9227 45.016 76.7947 45.1226 76.72C45.2293 76.6453 45.3786 76.608 45.5706 76.608C45.784 76.608 45.9493 76.672 46.0666 76.8C46.184 76.9173 46.2426 77.088 46.2426 77.312V87.408C46.2426 87.6213 46.184 87.792 46.0666 87.92C45.96 88.048 45.7946 88.112 45.5706 88.112C45.3466 88.112 45.176 88.048 45.0586 87.92C44.952 87.792 44.8986 87.6213 44.8986 87.408V78.784H45.2506L41.4106 85.968C41.3253 86.1067 41.2346 86.2133 41.1386 86.288C41.0533 86.352 40.9306 86.384 40.7706 86.384C40.6213 86.384 40.4933 86.3467 40.3866 86.272C40.2906 86.1973 40.2053 86.096 40.1306 85.968L36.2426 78.768H36.6266V87.408C36.6266 87.6213 36.568 87.792 36.4506 87.92C36.344 88.048 36.1786 88.112 35.9546 88.112ZM52.681 88.144C52.1797 88.144 51.6943 88.1013 51.225 88.016C50.7557 87.9413 50.313 87.824 49.897 87.664C49.481 87.504 49.1077 87.3067 48.777 87.072C48.6383 86.976 48.537 86.8587 48.473 86.72C48.4197 86.5813 48.4037 86.448 48.425 86.32C48.457 86.1813 48.5157 86.064 48.601 85.968C48.697 85.872 48.809 85.8133 48.937 85.792C49.065 85.7707 49.2037 85.8133 49.353 85.92C49.8437 86.2507 50.3557 86.4907 50.889 86.64C51.433 86.7893 52.0303 86.864 52.681 86.864C53.6197 86.864 54.3077 86.6933 54.745 86.352C55.193 86.0107 55.417 85.5627 55.417 85.008C55.417 84.5493 55.257 84.192 54.937 83.936C54.617 83.6693 54.0783 83.4613 53.321 83.312L51.625 82.96C50.6223 82.7467 49.8703 82.3947 49.369 81.904C48.8783 81.4133 48.633 80.7573 48.633 79.936C48.633 79.4347 48.7343 78.9813 48.937 78.576C49.1397 78.16 49.4277 77.8027 49.801 77.504C50.1743 77.2053 50.6117 76.976 51.113 76.816C51.625 76.656 52.1903 76.576 52.809 76.576C53.4703 76.576 54.089 76.6667 54.665 76.848C55.2517 77.0293 55.7797 77.296 56.249 77.648C56.377 77.744 56.4623 77.8613 56.505 78C56.5477 78.128 56.553 78.256 56.521 78.384C56.4997 78.512 56.441 78.6187 56.345 78.704C56.2597 78.7893 56.1477 78.8373 56.009 78.848C55.881 78.8587 55.737 78.8107 55.577 78.704C55.1503 78.4053 54.713 78.192 54.265 78.064C53.817 77.9253 53.3263 77.856 52.793 77.856C52.249 77.856 51.7743 77.9413 51.369 78.112C50.9743 78.2827 50.665 78.5227 50.441 78.832C50.2277 79.1307 50.121 79.4827 50.121 79.888C50.121 80.3787 50.2703 80.7627 50.569 81.04C50.8677 81.3173 51.369 81.5307 52.073 81.68L53.753 82.016C54.8197 82.24 55.609 82.5867 56.121 83.056C56.6437 83.5147 56.905 84.1333 56.905 84.912C56.905 85.4027 56.8037 85.8453 56.601 86.24C56.409 86.6347 56.1317 86.976 55.769 87.264C55.4063 87.5413 54.9637 87.76 54.441 87.92C53.9183 88.0693 53.3317 88.144 52.681 88.144Z" fill="black"/>
<path fill-rule="evenodd" clip-rule="evenodd" d="M48.6422 57.2307C47.7072 60.542 44.646 62.9047 41.1626 62.9047H31.6253L21.8548 72.6848C19.0709 74.7045 15.2062 72.7053 15.2062 69.2954V62.9047H11.4553C7.17836 62.9047 3.68359 59.4099 3.68359 55.1329V35.6627C3.68359 31.3856 7.1782 27.891 11.4553 27.891H21.1425C21.8501 27.891 22.4238 28.4647 22.4238 29.1722V43.779C22.4238 47.7454 25.6743 50.9959 29.6408 50.9959H42.8179C43.2071 50.9959 43.5556 51.1694 43.7907 51.4432L48.3167 55.9843C48.6531 56.3226 48.762 56.8019 48.6422 57.2307Z" fill="#0474BD"/>
<path fill-rule="evenodd" clip-rule="evenodd" d="M48.6422 57.2306C47.7072 60.5419 44.646 62.9046 41.1626 62.9046H31.6253L21.8548 72.6847C19.0709 74.7044 15.2062 72.7052 15.2062 69.2953V69.0869C16.4351 70.9646 19.1084 71.6906 21.1821 70.1861L30.9526 60.406H40.4899C43.7308 60.406 46.6059 58.3606 47.7435 55.4089L48.3167 55.9841C48.6531 56.3225 48.762 56.8018 48.6422 57.2306ZM15.206 62.9046V60.4061H10.7827C7.65739 60.4061 4.95011 58.54 3.71851 55.8663C4.09071 59.8023 7.42564 62.9047 11.4552 62.9047H15.206V62.9046Z" fill="#0062AE"/>
<path fill-rule="evenodd" clip-rule="evenodd" d="M29.6407 8.50659H68.5369C73.9181 8.50659 78.3163 12.9048 78.3163 18.2861V43.7788C78.3163 49.16 73.9183 53.5582 68.5369 53.5582H63.2296V62.3221C63.2296 66.4687 58.5324 68.8921 55.1526 66.4398C54.9217 66.2717 43.5328 54.8042 42.291 53.5582H29.6405C24.2596 53.5582 19.8611 49.1597 19.8611 43.7788V18.2861C19.8614 12.9048 24.2595 8.50659 29.6407 8.50659Z" fill="#ECEFF1"/>
<path fill-rule="evenodd" clip-rule="evenodd" d="M34.9996 37.6249C34.2921 37.6249 33.7184 37.0512 33.7184 36.3437C33.7184 35.6361 34.2921 35.0624 34.9996 35.0624H63.1782C63.8857 35.0624 64.4594 35.6361 64.4594 36.3437C64.4594 37.0512 63.8857 37.6249 63.1782 37.6249H34.9996ZM39.8043 27.0026C39.0968 27.0026 38.5231 26.4289 38.5231 25.7213C38.5231 25.0137 39.0968 24.4401 39.8043 24.4401H63.1782C63.8857 24.4401 64.4594 25.0137 64.4594 25.7213C64.4594 26.4289 63.8857 27.0026 63.1782 27.0026H39.8043Z" fill="#615260"/>
<path fill-rule="evenodd" clip-rule="evenodd" d="M74.0282 10.2045C76.6123 11.9686 78.3164 14.9368 78.3164 18.2861V43.7788C78.3164 49.1601 73.9183 53.5583 68.5369 53.5583H63.2297V62.3222C63.2297 66.4688 58.5325 68.8921 55.1527 66.4398C54.9655 66.3037 47.456 58.7521 43.9507 55.2268C47.6558 58.9509 52.3829 63.6958 52.5309 63.8035C55.9105 66.2556 60.6079 63.8325 60.6079 59.6859V50.9219H65.915C71.2963 50.9219 75.6945 46.5237 75.6945 41.1425V15.6499C75.6945 13.6377 75.0795 11.7631 74.0282 10.2045ZM29.6407 53.5584C26.2719 53.5584 23.2881 51.8342 21.5277 49.2243C23.0955 50.2946 24.9871 50.9221 27.0188 50.9221H39.6692C39.99 51.244 40.9894 52.2495 42.2982 53.5655L29.6407 53.5584Z" fill="#D4D7D9"/>
</svg>
