<svg width="12" height="12" viewBox="0 0 12 12" fill="none" xmlns="http://www.w3.org/2000/svg">
<g clip-path="url(#clip0_71_681)">
<path d="M6.83594e-05 3.04687C0.0619434 2.88031 0.101318 2.70031 0.190381 2.54968C0.428506 2.14749 0.795693 1.92749 1.26288 1.92562C2.98507 1.91781 4.70757 1.92187 6.42976 1.92249C6.64007 1.92249 6.79413 2.07187 6.79663 2.26874C6.79913 2.47406 6.64101 2.62437 6.41507 2.62468C4.73569 2.62531 3.05632 2.62499 1.37694 2.62499C0.928193 2.62499 0.702881 2.85187 0.702881 3.30343C0.702881 5.74437 0.702881 8.18531 0.702881 10.6262C0.702881 11.0678 0.931943 11.2969 1.37351 11.2969C3.81819 11.2969 6.26319 11.2969 8.70788 11.2969C9.14226 11.2969 9.37476 11.0659 9.37476 10.6344C9.37476 8.97062 9.37476 7.30687 9.37476 5.64312C9.37476 5.59249 9.37194 5.54062 9.38101 5.49124C9.41444 5.31406 9.57913 5.18937 9.75413 5.20374C9.93163 5.21874 10.0701 5.36281 10.0763 5.54656C10.0807 5.66749 10.0773 5.78874 10.0773 5.90968C10.0773 7.48749 10.0698 9.06531 10.0804 10.6431C10.0857 11.4119 9.52663 11.9184 8.98195 11.9828C8.97163 11.9841 8.96194 11.9937 8.95226 11.9994H1.12507C1.10757 11.9925 1.09069 11.9825 1.07226 11.9787C0.566631 11.8778 0.231318 11.5816 0.0610059 11.0969C0.0356934 11.0244 0.0200684 10.9487 -0.000244141 10.8744C-0.000244141 8.26499 -0.000244141 5.65562 -0.000244141 3.04624L6.83594e-05 3.04687Z" fill="#0474BD
"/>
<path d="M12 1.61718C11.94 1.87124 11.7737 2.05187 11.5946 2.23062C9.90777 3.91312 8.22339 5.59812 6.54058 7.28468C6.43402 7.39124 6.31933 7.45812 6.16933 7.48624C5.65964 7.58155 5.15183 7.68843 4.64277 7.78749C4.36027 7.84249 4.15714 7.63843 4.21214 7.35749C4.31621 6.82562 4.41902 6.29312 4.53152 5.7628C4.54996 5.67656 4.59902 5.58405 4.66121 5.52187C6.41214 3.76531 8.16683 2.01249 9.91902 0.25718C10.0506 0.125305 10.2112 0.0553052 10.3825 0.000305176H10.6403C10.8868 0.0534302 11.0734 0.199055 11.24 0.380305C11.3559 0.506243 11.4775 0.627493 11.6031 0.743743C11.789 0.915618 11.9456 1.10406 11.9996 1.35968V1.61749L12 1.61718ZM9.49496 1.64468C9.46996 1.67968 9.44746 1.72249 9.41464 1.75499C8.12089 3.05031 6.83027 4.34937 5.52746 5.63562C5.30433 5.85562 5.14308 6.07968 5.11496 6.39874C5.09777 6.59374 5.04339 6.78562 5.00402 6.98905C5.04058 6.98718 5.05964 6.98843 5.07777 6.98468C5.37964 6.92468 5.68214 6.86656 5.98308 6.80093C6.03121 6.79031 6.07777 6.75062 6.11464 6.71374C7.49589 5.33468 8.87589 3.95405 10.2571 2.57468C10.2868 2.54499 10.3303 2.52874 10.3593 2.51093C10.0621 2.21249 9.79277 1.94249 9.49558 1.64437L9.49496 1.64468ZM10.8653 1.97249C10.9915 1.84374 11.1162 1.71499 11.2428 1.58781C11.3093 1.52062 11.3171 1.45437 11.2475 1.38499C11.035 1.17281 10.825 0.957493 10.6071 0.751243C10.5756 0.721243 10.4806 0.706868 10.4559 0.72968C10.3087 0.86593 10.1734 1.01499 10.0434 1.15031C10.314 1.42093 10.5837 1.69093 10.8656 1.97281L10.8653 1.97249Z" fill="#0474BD
"/>
</g>
<defs>
<clipPath id="clip0_71_681">
<rect width="12" height="12" fill="white"/>
</clipPath>
</defs>
</svg>
