<svg width="28" height="28" viewBox="0 0 28 28" fill="none" xmlns="http://www.w3.org/2000/svg">
<g clip-path="url(#clip0_294_3185)">
<path d="M0.00073027 7.05455C0.0343227 6.94371 0.0715664 6.83361 0.101507 6.72132C0.454958 5.40007 1.62412 4.48715 2.98826 4.48642C6.97846 4.48278 10.9679 4.48496 14.9581 4.48569C15.4934 4.48569 15.8512 4.81528 15.8512 5.30309C15.8512 5.7909 15.4934 6.1234 14.9596 6.1234C11.0424 6.12413 7.12524 6.1234 3.20807 6.1234C2.18424 6.1234 1.63873 6.66809 1.63873 7.68965C1.63873 13.3947 1.63873 19.0997 1.63873 24.8047C1.63873 25.8073 2.19081 26.3592 3.19274 26.3592C8.89541 26.3592 14.5981 26.3592 20.3008 26.3592C21.3202 26.3592 21.8657 25.8109 21.8657 24.7886C21.8657 20.8701 21.8657 16.9508 21.8657 13.0323C21.8657 12.3622 22.4587 11.9443 23.0291 12.2156C23.3453 12.3658 23.5037 12.6261 23.5037 12.9805C23.5037 13.9736 23.5037 14.9675 23.5037 15.9606C23.5037 18.9137 23.4752 21.8668 23.5147 24.8185C23.5381 26.5824 22.2557 27.792 21.0018 27.9568C20.9785 27.9598 20.9573 27.9845 20.9354 27.9999H2.56982C2.53038 27.9824 2.49168 27.9568 2.45005 27.9481C1.30353 27.7002 0.538209 27.0177 0.144593 25.9166C0.0876324 25.7577 0.0481978 25.5922 0 25.4303C0 19.3053 0 13.1803 0 7.05528L0.00073027 7.05455Z" fill="#F9F9F9"/>
<path d="M24.8719 0.000240885C25.4539 0.143158 25.8775 0.517949 26.2747 0.940137C26.637 1.32441 27.0218 1.68753 27.392 2.06451C28.1946 2.88191 28.2085 4.03326 27.3964 4.84774C23.3113 8.94347 19.2203 13.0348 15.1228 17.1182C14.9665 17.2742 14.7292 17.388 14.5108 17.4346C13.2854 17.6986 12.0549 17.9356 10.8259 18.1813C10.1862 18.3096 9.6852 17.8094 9.813 17.1721C10.0613 15.934 10.2994 14.6929 10.5637 13.4577C10.6083 13.2485 10.7258 13.0232 10.8763 12.8722C14.9526 8.78014 19.0327 4.6917 23.1295 0.620033C23.4062 0.345137 23.8145 0.203678 24.1613 -0.000488281C24.3979 -0.000488281 24.6353 -0.000488281 24.8719 -0.000488281V0.000240885ZM22.1553 3.82764C22.0874 3.92316 22.0348 4.02305 21.9588 4.09962C18.8903 7.17378 15.8253 10.2523 12.7399 13.3097C12.32 13.7253 12.0206 14.1526 11.9731 14.7462C11.9585 14.9263 11.9045 15.1027 11.8702 15.2807C11.8066 15.6146 11.7446 15.9486 11.6796 16.2949C11.7665 16.2949 11.8125 16.3022 11.8548 16.2935C12.5318 16.1586 13.2095 16.0288 13.8828 15.8778C14.0208 15.8465 14.1625 15.7532 14.2647 15.6511C17.4808 12.4413 20.6933 9.22639 23.905 6.01295C23.9795 5.93857 24.0503 5.86128 24.1168 5.79128C23.4705 5.14451 22.8469 4.52035 22.1546 3.82764H22.1553ZM23.4026 2.64274C24.0664 3.30701 24.6952 3.93628 25.34 4.5816C25.6299 4.29066 25.9381 3.98368 26.2433 3.67232C26.3828 3.53014 26.377 3.38357 26.2353 3.24212C25.7394 2.74628 25.2443 2.25118 24.7492 1.75462C24.609 1.61389 24.4644 1.60368 24.3198 1.74368C24.0072 2.04701 23.6976 2.35326 23.4033 2.64201L23.4026 2.64274Z" fill="#F9F9F9"/>
</g>
<defs>
<clipPath id="clip0_294_3185">
<rect width="28" height="28" fill="white"/>
</clipPath>
</defs>
</svg>
