<svg width="18" height="18" viewBox="0 0 18 18" fill="none" xmlns="http://www.w3.org/2000/svg">
<g clip-path="url(#clip0_42_792)">
<path d="M14.1666 1.30347e-05C14.5395 0.0920317 14.923 0.154992 15.284 0.281352C17.0939 0.914476 18.2607 2.91996 17.9494 4.81492C17.8015 5.71574 17.4259 6.49944 16.7831 7.14533C15.4658 8.47058 14.1591 9.80727 12.8128 11.1026C11.2925 12.5647 8.67026 12.6361 7.0395 11.0185C6.56929 10.5522 6.53803 9.83985 6.96686 9.35334C7.37102 8.89501 8.1054 8.83557 8.60554 9.23358C8.87191 9.4458 9.1277 9.66286 9.47067 9.75003C10.1077 9.91206 10.6841 9.80198 11.1701 9.3573C11.5716 8.98967 11.9481 8.59474 12.3337 8.20993C13.2337 7.3122 14.1362 6.41711 15.0304 5.51365C15.896 4.63969 15.7168 3.24048 14.6711 2.64478C13.9742 2.24765 13.0871 2.37401 12.4892 2.9653C11.7812 3.66535 11.0741 4.36716 10.3781 5.07909C10.1967 5.26445 10.0294 5.31112 9.78635 5.21382C9.20387 4.98091 8.59189 4.88713 7.96583 4.88713C7.81306 4.88713 7.68802 4.84795 7.62242 4.69737C7.55858 4.55076 7.6189 4.43584 7.72104 4.33414C8.80454 3.25589 9.87924 2.16796 10.9764 1.10336C11.6174 0.48124 12.4082 0.144425 13.2944 0.0334744C13.3398 0.0277507 13.3838 0.0110201 13.4283 -0.000427246C13.6744 -0.000427246 13.9205 -0.000427246 14.1666 -0.000427246V1.30347e-05Z" fill="#0062AE"/>
<path d="M0 13.4638C0.0730848 13.1336 0.124596 12.7968 0.224097 12.4749C0.424861 11.8255 0.791606 11.2721 1.27106 10.7922C2.51306 9.54881 3.75154 8.30149 4.99839 7.06343C6.43279 5.63912 8.50602 5.37891 10.2055 6.40917C10.5713 6.63107 10.9279 6.87895 11.1564 7.25319C11.4536 7.7397 11.3537 8.37546 10.9469 8.72769C10.4991 9.11601 9.85192 9.14067 9.39536 8.77568C9.12988 8.56346 8.87584 8.3442 8.53287 8.25483C7.8958 8.08928 7.32697 8.20639 6.82815 8.63567C6.67758 8.76511 6.54153 8.91216 6.40065 9.05305C5.25286 10.2 4.10288 11.3452 2.95817 12.4952C2.2423 13.2146 2.21236 14.3162 2.88025 15.0272C3.58468 15.777 4.73687 15.7942 5.48665 15.0563C6.11711 14.4359 6.73789 13.8054 7.36308 13.1798C7.47887 13.0636 7.59554 12.9487 7.71089 12.832C7.81655 12.7246 7.93895 12.6955 8.07984 12.7501C8.72043 12.9975 9.38436 13.1186 10.0712 13.1146C10.2112 13.1138 10.3213 13.171 10.3767 13.3079C10.4335 13.4484 10.3767 13.5598 10.2807 13.6566C9.88846 14.0511 9.4953 14.4452 9.10082 14.8375C8.39463 15.5397 7.71045 16.2662 6.97432 16.9354C6.00837 17.8133 4.84517 18.1523 3.55782 17.9375C1.89404 17.6597 0.783681 16.6871 0.217493 15.1047C0.106105 14.7939 0.0704432 14.4566 0 14.1317C0 13.9089 0 13.6866 0 13.4638Z" fill="#0062AE"/>
</g>
<defs>
<clipPath id="clip0_42_792">
<rect width="18" height="18" fill="white"/>
</clipPath>
</defs>
</svg>
