<svg width="32" height="47" viewBox="0 0 32 47" fill="none" xmlns="http://www.w3.org/2000/svg">
<path d="M16.0001 4.46154C10.6893 4.46154 6.38408 9.23011 6.38408 15.1124C6.38408 17.329 6.76619 19.1204 5.63743 23.1005C5.22185 24.5659 3.53257 27.5398 1.75008 30.4418C-0.183882 33.5904 1.84114 37.9231 5.32071 37.9231C12.4402 37.9231 19.5598 37.9231 26.6794 37.9231C30.1589 37.9231 32.1839 33.5904 30.2499 30.4418C28.4675 27.5398 26.7782 24.5659 26.3626 23.1005C25.2339 19.1204 25.6159 17.329 25.6159 15.1124C25.6159 9.23011 21.3108 4.46154 16.0001 4.46154ZM16.0001 4.46154V1M22.3605 37.9231V39.0769C22.3605 43.6651 19.5127 46 16.0001 46C12.4873 46 9.63962 43.6651 9.63962 39.0769V37.9231" stroke="white" stroke-width="1.25" stroke-linecap="round"/>
</svg>
