<svg width="59" height="52" viewBox="0 0 59 52" fill="none" xmlns="http://www.w3.org/2000/svg">
<path d="M38.5 51H7.25C3.79822 51 1 48.2019 1 44.75V7.25C1 3.79822 3.79822 1 7.25 1H18.2578C20.783 1 23.06 2.51959 24.0291 4.85147L24.3994 5.74228C25.3684 8.07416 27.6456 9.59375 30.1709 9.59375H45.5312C48.5516 9.59375 51 12.0422 51 15.0625M9.10753 51H46.1819C49.0213 51 51.5038 49.0863 52.2263 46.3406L57.7809 25.2328C58.3022 23.2513 56.8078 21.3125 54.7588 21.3125H13.6306C10.7914 21.3125 8.30891 23.2263 7.58634 25.9719L3.06331 43.1594C2.02041 47.1225 5.00956 51 9.10753 51Z" stroke="black" stroke-width="1.25" stroke-linecap="round"/>
</svg>
