<svg width="11" height="14" viewBox="0 0 11 14" fill="none" xmlns="http://www.w3.org/2000/svg">
<path d="M0.216853 2.10662C0.260011 2.01698 0.300232 1.92594 0.346855 1.83855C0.475372 1.5973 0.651558 1.39748 0.883428 1.25145C1.30433 0.986448 1.72551 0.721865 2.15057 0.463974C2.50602 0.248687 2.87791 0.180263 3.23802 0.440528C3.37648 0.540591 3.49743 0.680435 3.59072 0.825486C3.97887 1.4287 4.35459 2.04028 4.73301 2.64958C4.86688 2.86521 4.96483 3.0921 4.94562 3.35569C4.92464 3.64423 4.78541 3.87069 4.55568 4.02626C4.1661 4.29054 3.7634 4.53475 3.36527 4.78582C3.10665 4.94886 3.107 4.95365 3.16885 5.2537C3.33409 6.05826 3.69946 6.779 4.10186 7.48366C4.50506 8.1896 4.97884 8.84555 5.55301 9.4229C5.75054 9.62172 5.9733 9.79594 6.18496 9.98063C6.28231 10.0658 6.37683 10.0376 6.47443 9.97576C6.8502 9.73836 7.22738 9.50273 7.60447 9.26745C7.80123 9.14483 8.0099 9.05537 8.24723 9.05983C8.53467 9.06535 8.75918 9.19905 8.94062 9.41262C8.99731 9.47932 9.04693 9.55307 9.09391 9.62731C9.46884 10.2235 9.84665 10.8182 10.2123 11.4198C10.3045 11.5715 10.3845 11.741 10.4213 11.9128C10.5029 12.2921 10.3496 12.6058 10.0425 12.8174C9.58246 13.1342 9.10793 13.4307 8.62948 13.719C8.34879 13.8882 8.03101 13.9419 7.70251 13.9197C7.67825 13.918 7.65306 13.9267 7.62864 13.9305L7.06221 13.7997C7.03145 13.7839 7.00092 13.7671 6.96957 13.7522C6.63204 13.595 6.27839 13.4652 5.95973 13.2764C4.97568 12.6935 4.13971 11.9275 3.38286 11.0776C2.01898 9.54641 1.04841 7.79131 0.459689 5.82737C0.238536 5.08923 0.094396 4.33445 0.0602339 3.56306C0.0478255 3.2842 0.0691218 3.00371 0.0750208 2.72401C0.122581 2.51803 0.17014 2.31206 0.217621 2.10643L0.216853 2.10662Z" fill="#0474BD"/>
</svg>
