<svg width="17" height="41" viewBox="0 0 17 41" fill="none" xmlns="http://www.w3.org/2000/svg">
<g clip-path="url(#clip0_52_619)">
<path d="M2.21685 28.1066C2.26001 28.017 2.30023 27.9259 2.34685 27.8385C2.47537 27.5973 2.65156 27.3975 2.88343 27.2515C3.30433 26.9864 3.72551 26.7219 4.15057 26.464C4.50602 26.2487 4.87791 26.1803 5.23802 26.4405C5.37648 26.5406 5.49743 26.6804 5.59072 26.8255C5.97887 27.4287 6.35459 28.0403 6.73301 28.6496C6.86688 28.8652 6.96483 29.0921 6.94562 29.3557C6.92464 29.6442 6.78541 29.8707 6.55568 30.0263C6.1661 30.2905 5.7634 30.5348 5.36527 30.7858C5.10665 30.9489 5.107 30.9536 5.16885 31.2537C5.33409 32.0583 5.69946 32.779 6.10186 33.4837C6.50506 34.1896 6.97884 34.8455 7.55301 35.4229C7.75054 35.6217 7.9733 35.7959 8.18496 35.9806C8.28231 36.0658 8.37683 36.0376 8.47443 35.9758C8.8502 35.7384 9.22738 35.5027 9.60447 35.2675C9.80123 35.1448 10.0099 35.0554 10.2472 35.0598C10.5347 35.0654 10.7592 35.199 10.9406 35.4126C10.9973 35.4793 11.0469 35.5531 11.0939 35.6273C11.4688 36.2235 11.8467 36.8182 12.2123 37.4198C12.3045 37.5715 12.3845 37.741 12.4213 37.9128C12.5029 38.2921 12.3496 38.6058 12.0425 38.8174C11.5825 39.1342 11.1079 39.4307 10.6295 39.719C10.3488 39.8882 10.031 39.9419 9.70251 39.9197C9.67825 39.918 9.65306 39.9267 9.62864 39.9305L9.06221 39.7997C9.03145 39.7839 9.00092 39.7671 8.96957 39.7522C8.63204 39.595 8.27839 39.4652 7.95973 39.2764C6.97568 38.6935 6.13971 37.9275 5.38286 37.0776C4.01898 35.5464 3.04841 33.7913 2.45969 31.8274C2.23854 31.0892 2.0944 30.3345 2.06023 29.5631C2.04783 29.2842 2.06912 29.0037 2.07502 28.724C2.12258 28.518 2.17014 28.3121 2.21762 28.1064L2.21685 28.1066Z" fill="#0474BD"/>
<path d="M9.47234 27.0619C9.59287 26.7485 9.71693 26.4262 9.84056 26.1041C12.9979 27.2841 15.0058 30.4942 14.7874 33.7572C14.4435 33.7375 14.0994 33.7182 13.7659 33.6991C13.7541 30.57 12.3342 28.367 9.47234 27.0619Z" fill="#0474BD"/>
<path d="M8.726 29.6733C8.85071 29.3497 8.97434 29.0276 9.09824 28.706C11.1319 29.4621 12.2282 31.5356 12.072 33.3152C11.7326 33.2963 11.3921 33.2771 11.0425 33.2572C11.0427 31.5679 10.2694 30.3752 8.72565 29.6732L8.726 29.6733Z" fill="#0474BD"/>
</g>
<g clip-path="url(#clip1_52_619)">
<path d="M0 9.31624C0 7.18532 0 5.05405 0 2.92313C0.0260318 2.93363 0.0544301 2.94086 0.077701 2.95498C2.12277 4.20573 4.16706 5.45721 6.21213 6.70797C7.09406 7.24721 8.02016 7.24938 8.9009 6.71086C10.9223 5.47567 12.9425 4.23867 14.9632 3.00239C15.0065 2.97597 15.0507 2.95064 15.1158 2.91264V3.03568C15.1158 5.06744 15.1166 7.09919 15.1138 9.13058C15.1138 9.23734 15.0965 9.34736 15.0657 9.45051C14.8929 10.0343 14.3514 10.3965 13.6564 10.3965C9.59232 10.3969 5.52781 10.3965 1.4637 10.3965C1.41952 10.3965 1.37495 10.3976 1.33078 10.3947C0.866543 10.3618 0.486321 10.1826 0.235469 9.81929C0.130553 9.66729 0.0769121 9.48489 0 9.31624Z" fill="#0474BD"/>
<path d="M0 1.0814C0.0228764 1.01336 0.0445696 0.945323 0.0690237 0.877646C0.251641 0.374593 0.766755 0.021009 1.34576 0.00182784C1.38521 0.000380208 1.42465 0.000742116 1.4637 0.000742116C5.52781 0.000742116 9.59193 0.000742116 13.656 0.000742116C14.2556 0.000742116 14.7095 0.234897 14.9789 0.731797C15.2854 1.2971 15.0921 1.94347 14.5111 2.30537C13.8158 2.73858 13.1145 3.1631 12.4152 3.59087C11.0947 4.39865 9.77336 5.20643 8.45244 6.01421C7.81506 6.40398 7.30192 6.40398 6.66414 6.01385C4.74173 4.83765 2.82287 3.65674 0.893758 2.48995C0.474489 2.23589 0.11596 1.95903 0 1.48746C0 1.35211 0 1.21675 0 1.0814Z" fill="#0474BD"/>
</g>
<defs>
<clipPath id="clip0_52_619">
<rect width="13.5196" height="13.5196" fill="white" transform="translate(3.04175 24.5342) rotate(13.0019)"/>
</clipPath>
<clipPath id="clip1_52_619">
<rect width="15.1233" height="10.3973" fill="white"/>
</clipPath>
</defs>
</svg>
