<svg width="44" height="44" viewBox="0 0 44 44" fill="none" xmlns="http://www.w3.org/2000/svg">
<g clip-path="url(#clip0_75_1062)">
<path d="M18.8474 -0.000242033C23.4632 -0.000242033 28.0789 -0.000242033 32.696 -0.000242033C35.7207 -0.000242033 37.7145 1.98738 37.7158 5.00416C37.7171 11.1425 37.7184 17.2821 37.7158 23.4204C37.7158 24.6408 36.6914 25.4408 35.6328 25.0467C34.9901 24.8083 34.6334 24.3317 34.5796 23.643C34.5651 23.4479 34.5743 23.2502 34.5743 23.0538C34.5743 17.0464 34.5743 11.0377 34.5743 5.03035C34.5743 3.72622 33.9906 3.14093 32.6921 3.14093C23.4592 3.14093 14.2277 3.14093 4.99484 3.14093C3.72777 3.14093 3.14539 3.73015 3.14539 5.01071C3.14539 14.2431 3.14539 23.4754 3.14539 32.7078C3.14539 33.9752 3.73957 34.571 5.00402 34.571C11.1426 34.571 17.2813 34.571 23.4199 34.5723C24.6581 34.5723 25.4517 35.6237 25.0398 36.7013C24.7958 37.3377 24.2213 37.7109 23.4527 37.7122C21.0458 37.7161 18.6402 37.7135 16.2332 37.7135C12.4845 37.7135 8.73573 37.7148 4.98697 37.7135C2.00423 37.7135 0.00131167 35.7101 0 32.7248C0 23.4767 0 14.2273 0 4.97797C0.00131167 2.00178 2.01079 0.00106733 4.99878 -0.000242033C9.61455 -0.0015514 14.2316 -0.000242033 18.8474 -0.000242033Z" fill="#F9F9F9"/>
<path d="M31.4054 31.4117H6.31047C6.3026 31.2363 6.28818 31.0778 6.28818 30.9207C6.28818 27.8778 6.28031 24.8348 6.29998 21.7905C6.30129 21.5483 6.42721 21.2576 6.59117 21.0756C7.12896 20.4824 7.70478 19.922 8.27667 19.3603C8.98104 18.669 9.87953 18.665 10.5865 19.3629C11.6582 20.4209 12.7141 21.4933 13.7765 22.5591C13.8893 22.673 14.01 22.7791 14.1464 22.9074C14.292 22.7686 14.4232 22.6508 14.5478 22.5264C17.1265 19.9443 19.7039 17.3622 22.2827 14.7815C23.1589 13.9042 23.9905 13.9055 24.8732 14.7893C26.9667 16.8843 29.0601 18.9793 31.1417 21.0848C31.2847 21.2301 31.4159 21.4658 31.4172 21.6596C31.4342 24.8335 31.429 28.0074 31.4277 31.1826C31.4277 31.2454 31.4158 31.3083 31.4054 31.413V31.4117Z" fill="#F9F9F9"/>
<path d="M34.573 34.5739C34.573 33.6966 34.573 32.8665 34.573 32.0376C34.573 31.3345 34.5665 30.6301 34.5743 29.9269C34.5861 28.9737 35.2643 28.2797 36.1602 28.2889C37.0324 28.2981 37.704 28.9894 37.7119 29.9138C37.7224 31.2716 37.7145 32.6295 37.7145 33.9873C37.7145 34.164 37.7145 34.3408 37.7145 34.5739C38.1211 34.5739 38.4923 34.5739 38.8635 34.5739C40.0414 34.5739 41.2193 34.5647 42.3971 34.5765C43.3114 34.5857 44.0026 35.277 43.9987 36.1504C43.9961 37.0237 43.3061 37.7059 42.3853 37.7124C40.8507 37.7229 39.3147 37.715 37.7145 37.715C37.7145 37.918 37.7145 38.0908 37.7145 38.2637C37.7145 39.6045 37.7184 40.9466 37.7145 42.2874C37.7105 43.2877 37.0586 43.9961 36.1497 43.9987C35.2407 44.0026 34.577 43.2916 34.5743 42.2978C34.5691 40.7947 34.5743 39.2902 34.5743 37.7137H34.0366C32.6947 37.7137 31.3542 37.7164 30.0124 37.7137C29.0089 37.7111 28.2993 37.0656 28.2901 36.1595C28.2809 35.2286 28.9919 34.5752 30.0268 34.5726C31.3686 34.5686 32.7091 34.5726 34.051 34.5726C34.2097 34.5726 34.3684 34.5726 34.5743 34.5726L34.573 34.5739Z" fill="#F9F9F9"/>
<path d="M14.1227 14.1425C11.9585 14.1333 10.2022 12.3539 10.2166 10.1829C10.2297 8.01987 12.0149 6.26925 14.1883 6.28889C16.3329 6.30722 18.0735 8.07225 18.0709 10.2235C18.0682 12.3905 16.2949 14.1516 14.124 14.1438L14.1227 14.1425Z" fill="#F9F9F9"/>
</g>
<defs>
<clipPath id="clip0_75_1062">
<rect width="44" height="44" fill="white"/>
</clipPath>
</defs>
</svg>
