<svg width="26" height="26" viewBox="0 0 26 26" fill="none" xmlns="http://www.w3.org/2000/svg">
<path d="M12.8242 25.35C12.2909 25.35 11.8909 25.2 11.6242 24.9C11.3576 24.6 11.2242 24.2 11.2242 23.7V14.2H1.87422C1.37422 14.2 0.974219 14.0667 0.674219 13.8C0.407552 13.5333 0.274219 13.15 0.274219 12.65C0.274219 12.15 0.407552 11.7667 0.674219 11.5C0.974219 11.2333 1.37422 11.1 1.87422 11.1H11.2242V1.9C11.2242 1.36667 11.3576 0.966666 11.6242 0.699999C11.8909 0.399999 12.2909 0.249999 12.8242 0.249999C13.3576 0.249999 13.7576 0.399999 14.0242 0.699999C14.2909 0.966666 14.4242 1.36667 14.4242 1.9V11.1H23.7742C24.2742 11.1 24.6576 11.2333 24.9242 11.5C25.2242 11.7667 25.3742 12.15 25.3742 12.65C25.3742 13.15 25.2242 13.5333 24.9242 13.8C24.6576 14.0667 24.2742 14.2 23.7742 14.2H14.4242V23.7C14.4242 24.2 14.2909 24.6 14.0242 24.9C13.7576 25.2 13.3576 25.35 12.8242 25.35Z" fill="white"/>
</svg>
