<svg width="23" height="27" viewBox="0 0 23 27" fill="none" xmlns="http://www.w3.org/2000/svg">
<path fill-rule="evenodd" clip-rule="evenodd" d="M10.8941 12.105C10.8941 11.6232 10.7028 11.1614 10.3624 10.8213C10.0221 10.4805 9.56026 10.2893 9.07868 10.2893H1.81545C1.33387 10.2893 0.872066 10.4805 0.531713 10.8213C0.190653 11.1614 0 11.6232 0 12.105C0 14.9394 0 21.9809 0 24.8153C0 25.297 0.190653 25.7589 0.531713 26.099C0.872066 26.4398 1.33387 26.631 1.81545 26.631H10.289C10.623 26.631 10.8941 26.3599 10.8941 26.0258V12.105ZM9.68383 12.105V25.4205H1.81545C1.65516 25.4205 1.50122 25.357 1.38754 25.2432C1.27385 25.13 1.2103 24.9757 1.2103 24.8153V12.105C1.2103 11.9446 1.27385 11.7903 1.38754 11.6771C1.50122 11.5633 1.65516 11.4998 1.81545 11.4998H9.07868C9.23897 11.4998 9.39291 11.5633 9.50659 11.6771C9.62028 11.7903 9.68383 11.9446 9.68383 12.105Z" fill="#999999"/>
<path fill-rule="evenodd" clip-rule="evenodd" d="M19.973 9.68401V1.81575C19.973 1.33397 19.7813 0.872164 19.4414 0.532014C19.1004 0.191258 18.6384 0 18.1573 0C15.8381 0 10.7923 0 8.47322 0C7.99205 0 7.53004 0.191258 7.18908 0.532014C6.84913 0.872164 6.65747 1.33397 6.65747 1.81575C6.65747 4.02249 6.65747 8.47351 6.65747 8.47351C6.65747 8.8076 6.92882 9.07876 7.26272 9.07876C7.59662 9.07876 7.86797 8.8076 7.86797 8.47351C7.86797 8.47351 7.86797 4.02249 7.86797 1.81575C7.86797 1.65536 7.93152 1.50102 8.04551 1.38784C8.15849 1.27405 8.31283 1.2105 8.47322 1.2105H18.1573C18.3176 1.2105 18.472 1.27405 18.585 1.38784C18.6989 1.50102 18.7625 1.65536 18.7625 1.81575V9.68401C18.7625 10.0181 19.0339 10.2893 19.3678 10.2893C19.7016 10.2893 19.973 10.0181 19.973 9.68401Z" fill="#999999"/>
<path fill-rule="evenodd" clip-rule="evenodd" d="M9.07815 26.631H21.1832C21.6649 26.631 22.1267 26.4398 22.4669 26.099C22.8076 25.7589 22.9989 25.297 22.9989 24.8153C22.9989 22.18 22.9989 15.9508 22.9989 13.3155C22.9989 12.8337 22.8076 12.3719 22.4669 12.0318C22.1267 11.691 21.6649 11.4998 21.1832 11.4998H18.3712C17.6285 11.4998 16.9609 11.9519 16.6855 12.6413L14.8728 17.1716C14.7814 17.4016 14.5587 17.5523 14.3111 17.5523H10.2887C9.95455 17.5523 9.95455 18.7628 10.2887 18.7628C10.2887 18.7628 12.93 18.7628 14.3111 18.7628C15.0538 18.7628 15.7214 18.3106 15.9968 17.6213L17.8095 13.091C17.9009 12.861 18.1236 12.7103 18.3712 12.7103H21.1832C21.3435 12.7103 21.4979 12.7738 21.6111 12.8876C21.7249 13.0008 21.7884 13.1551 21.7884 13.3155V24.8153C21.7884 24.9757 21.7249 25.13 21.6111 25.2432C21.4979 25.357 21.3435 25.4205 21.1832 25.4205H9.07815C8.74405 25.4205 8.74405 26.631 9.07815 26.631Z" fill="#999999"/>
<path fill-rule="evenodd" clip-rule="evenodd" d="M7.86795 20.5785C7.86795 20.0967 7.67665 19.6349 7.33592 19.2948C6.9952 18.954 6.53338 18.7628 6.05224 18.7628H4.84134C4.3602 18.7628 3.89839 18.954 3.55766 19.2948C3.21693 19.6349 3.02563 20.0967 3.02563 20.5785C3.02563 22.4984 3.02563 26.0258 3.02563 26.0258C3.02563 26.3599 3.2968 26.631 3.63109 26.631H7.2625C7.59678 26.631 7.86795 26.3599 7.86795 26.0258V20.5785ZM6.65704 20.5785V25.4205H4.23654V20.5785C4.23654 20.4181 4.3003 20.2638 4.41366 20.1506C4.52702 20.0368 4.68096 19.9733 4.84134 19.9733H6.05224C6.21262 19.9733 6.36656 20.0368 6.47992 20.1506C6.59328 20.2638 6.65704 20.4181 6.65704 20.5785Z" fill="#999999"/>
<path fill-rule="evenodd" clip-rule="evenodd" d="M6.05193 12.8918C6.05193 12.8434 6.03256 12.7974 5.99867 12.7635C5.96478 12.7296 5.91877 12.7103 5.87035 12.7103C5.64157 12.7103 5.25179 12.7103 5.02301 12.7103C4.97459 12.7103 4.92859 12.7296 4.89469 12.7635C4.8608 12.7974 4.84143 12.8434 4.84143 12.8918C4.84143 13.1206 4.84143 13.5104 4.84143 13.7392C4.84143 13.7876 4.8608 13.8336 4.89469 13.8675C4.92859 13.9014 4.97459 13.9208 5.02301 13.9208C5.25179 13.9208 5.64157 13.9208 5.87035 13.9208C5.91877 13.9208 5.96478 13.9014 5.99867 13.8675C6.03256 13.8336 6.05193 13.7876 6.05193 13.7392V12.8918Z" fill="#999999"/>
<path fill-rule="evenodd" clip-rule="evenodd" d="M13.9202 2.60258C13.9202 2.55416 13.9008 2.50816 13.8669 2.47427C13.833 2.44037 13.787 2.42101 13.7386 2.42101C13.5098 2.42101 13.12 2.42101 12.8912 2.42101C12.8428 2.42101 12.7968 2.44037 12.7629 2.47427C12.729 2.50816 12.7097 2.55416 12.7097 2.60258C12.7097 2.83137 12.7097 3.22114 12.7097 3.44993C12.7097 3.49835 12.729 3.54435 12.7629 3.57825C12.7968 3.61214 12.8428 3.63151 12.8912 3.63151C13.12 3.63151 13.5098 3.63151 13.7386 3.63151C13.787 3.63151 13.833 3.61214 13.8669 3.57825C13.9008 3.54435 13.9202 3.49835 13.9202 3.44993V2.60258Z" fill="#999999"/>
<path fill-rule="evenodd" clip-rule="evenodd" d="M13.9202 5.02359C13.9202 4.97517 13.9008 4.92916 13.8669 4.89527C13.833 4.86138 13.787 4.84201 13.7386 4.84201C13.5098 4.84201 13.12 4.84201 12.8912 4.84201C12.8428 4.84201 12.7968 4.86138 12.7629 4.89527C12.729 4.92916 12.7097 4.97517 12.7097 5.02359C12.7097 5.25237 12.7097 5.64215 12.7097 5.87093C12.7097 5.91935 12.729 5.96536 12.7629 5.99925C12.7968 6.03314 12.8428 6.05251 12.8912 6.05251C13.12 6.05251 13.5098 6.05251 13.7386 6.05251C13.787 6.05251 13.833 6.03314 13.8669 5.99925C13.9008 5.96536 13.9202 5.91935 13.9202 5.87093V5.02359Z" fill="#999999"/>
<path fill-rule="evenodd" clip-rule="evenodd" d="M13.9202 7.44458C13.9202 7.39616 13.9008 7.35015 13.8669 7.31626C13.833 7.28237 13.787 7.263 13.7386 7.263C13.5098 7.263 13.12 7.263 12.8912 7.263C12.8428 7.263 12.7968 7.28237 12.7629 7.31626C12.729 7.35015 12.7097 7.39616 12.7097 7.44458C12.7097 7.67336 12.7097 8.06314 12.7097 8.29192C12.7097 8.34034 12.729 8.38635 12.7629 8.42024C12.7968 8.45413 12.8428 8.4735 12.8912 8.4735C13.12 8.4735 13.5098 8.4735 13.7386 8.4735C13.787 8.4735 13.833 8.45413 13.8669 8.42024C13.9008 8.38635 13.9202 8.34034 13.9202 8.29192V7.44458Z" fill="#999999"/>
<path fill-rule="evenodd" clip-rule="evenodd" d="M3.63091 12.8918C3.63091 12.8434 3.61154 12.7974 3.57765 12.7635C3.54376 12.7296 3.49775 12.7103 3.44933 12.7103C3.22055 12.7103 2.83077 12.7103 2.60199 12.7103C2.55357 12.7103 2.50756 12.7296 2.47367 12.7635C2.43978 12.7974 2.42041 12.8434 2.42041 12.8918C2.42041 13.1206 2.42041 13.5104 2.42041 13.7392C2.42041 13.7876 2.43978 13.8336 2.47367 13.8675C2.50756 13.9014 2.55357 13.9208 2.60199 13.9208C2.83077 13.9208 3.22055 13.9208 3.44933 13.9208C3.49775 13.9208 3.54376 13.9014 3.57765 13.8675C3.61154 13.8336 3.63091 13.7876 3.63091 13.7392V12.8918Z" fill="#999999"/>
<path fill-rule="evenodd" clip-rule="evenodd" d="M10.8939 2.60258C10.8939 2.55416 10.8745 2.50816 10.8407 2.47427C10.8068 2.44037 10.7608 2.42101 10.7123 2.42101C10.4835 2.42101 10.0938 2.42101 9.86499 2.42101C9.81657 2.42101 9.77057 2.44037 9.73667 2.47427C9.70278 2.50816 9.68341 2.55416 9.68341 2.60258C9.68341 2.83137 9.68341 3.22114 9.68341 3.44993C9.68341 3.49835 9.70278 3.54435 9.73667 3.57825C9.77057 3.61214 9.81657 3.63151 9.86499 3.63151C10.0938 3.63151 10.4835 3.63151 10.7123 3.63151C10.7608 3.63151 10.8068 3.61214 10.8407 3.57825C10.8745 3.54435 10.8939 3.49835 10.8939 3.44993V2.60258Z" fill="#999999"/>
<path fill-rule="evenodd" clip-rule="evenodd" d="M10.8939 5.02359C10.8939 4.97517 10.8745 4.92916 10.8407 4.89527C10.8068 4.86138 10.7608 4.84201 10.7123 4.84201C10.4835 4.84201 10.0938 4.84201 9.86499 4.84201C9.81657 4.84201 9.77057 4.86138 9.73667 4.89527C9.70278 4.92916 9.68341 4.97517 9.68341 5.02359C9.68341 5.25237 9.68341 5.64215 9.68341 5.87093C9.68341 5.91935 9.70278 5.96536 9.73667 5.99925C9.77057 6.03314 9.81657 6.05251 9.86499 6.05251C10.0938 6.05251 10.4835 6.05251 10.7123 6.05251C10.7608 6.05251 10.8068 6.03314 10.8407 5.99925C10.8745 5.96536 10.8939 5.91935 10.8939 5.87093V5.02359Z" fill="#999999"/>
<path fill-rule="evenodd" clip-rule="evenodd" d="M10.8939 7.44458C10.8939 7.39616 10.8745 7.35015 10.8407 7.31626C10.8068 7.28237 10.7608 7.263 10.7123 7.263C10.4835 7.263 10.0938 7.263 9.86499 7.263C9.81657 7.263 9.77057 7.28237 9.73667 7.31626C9.70278 7.35015 9.68341 7.39616 9.68341 7.44458C9.68341 7.67336 9.68341 8.06314 9.68341 8.29192C9.68341 8.34034 9.70278 8.38635 9.73667 8.42024C9.77057 8.45413 9.81657 8.4735 9.86499 8.4735C10.0938 8.4735 10.4835 8.4735 10.7123 8.4735C10.7608 8.4735 10.8068 8.45413 10.8407 8.42024C10.8745 8.38635 10.8939 8.34034 10.8939 8.29192V7.44458Z" fill="#999999"/>
<path fill-rule="evenodd" clip-rule="evenodd" d="M6.05193 15.3128C6.05193 15.2644 6.03256 15.2184 5.99867 15.1845C5.96478 15.1506 5.91877 15.1313 5.87035 15.1313C5.64157 15.1313 5.25179 15.1313 5.02301 15.1313C4.97459 15.1313 4.92859 15.1506 4.89469 15.1845C4.8608 15.2184 4.84143 15.2644 4.84143 15.3128C4.84143 15.5416 4.84143 15.9314 4.84143 16.1602C4.84143 16.2086 4.8608 16.2546 4.89469 16.2885C4.92859 16.3224 4.97459 16.3418 5.02301 16.3418C5.25179 16.3418 5.64157 16.3418 5.87035 16.3418C5.91877 16.3418 5.96478 16.3224 5.99867 16.2885C6.03256 16.2546 6.05193 16.2086 6.05193 16.1602V15.3128Z" fill="#999999"/>
<path fill-rule="evenodd" clip-rule="evenodd" d="M3.63091 15.3128C3.63091 15.2644 3.61154 15.2184 3.57765 15.1845C3.54376 15.1506 3.49775 15.1313 3.44933 15.1313C3.22055 15.1313 2.83077 15.1313 2.60199 15.1313C2.55357 15.1313 2.50756 15.1506 2.47367 15.1845C2.43978 15.2184 2.42041 15.2644 2.42041 15.3128C2.42041 15.5416 2.42041 15.9314 2.42041 16.1602C2.42041 16.2086 2.43978 16.2546 2.47367 16.2885C2.50756 16.3224 2.55357 16.3418 2.60199 16.3418C2.83077 16.3418 3.22055 16.3418 3.44933 16.3418C3.49775 16.3418 3.54376 16.3224 3.57765 16.2885C3.61154 16.2546 3.63091 16.2086 3.63091 16.1602V15.3128Z" fill="#999999"/>
<path fill-rule="evenodd" clip-rule="evenodd" d="M8.47289 12.8918C8.47289 12.8434 8.45352 12.7974 8.41963 12.7635C8.38574 12.7296 8.33973 12.7103 8.29131 12.7103C8.06253 12.7103 7.67275 12.7103 7.44397 12.7103C7.39555 12.7103 7.34954 12.7296 7.31565 12.7635C7.28176 12.7974 7.26239 12.8434 7.26239 12.8918C7.26239 13.1206 7.26239 13.5104 7.26239 13.7392C7.26239 13.7876 7.28176 13.8336 7.31565 13.8675C7.34954 13.9014 7.39555 13.9208 7.44397 13.9208C7.67275 13.9208 8.06253 13.9208 8.29131 13.9208C8.33973 13.9208 8.38574 13.9014 8.41963 13.8675C8.45352 13.8336 8.47289 13.7876 8.47289 13.7392V12.8918Z" fill="#999999"/>
<path fill-rule="evenodd" clip-rule="evenodd" d="M16.9464 2.60258C16.9464 2.55416 16.927 2.50816 16.8931 2.47427C16.8592 2.44037 16.8132 2.42101 16.7648 2.42101C16.536 2.42101 16.1463 2.42101 15.9175 2.42101C15.8691 2.42101 15.8231 2.44037 15.7892 2.47427C15.7553 2.50816 15.7359 2.55416 15.7359 2.60258C15.7359 2.83137 15.7359 3.22114 15.7359 3.44993C15.7359 3.49835 15.7553 3.54435 15.7892 3.57825C15.8231 3.61214 15.8691 3.63151 15.9175 3.63151C16.1463 3.63151 16.536 3.63151 16.7648 3.63151C16.8132 3.63151 16.8592 3.61214 16.8931 3.57825C16.927 3.54435 16.9464 3.49835 16.9464 3.44993V2.60258Z" fill="#999999"/>
<path fill-rule="evenodd" clip-rule="evenodd" d="M16.9464 5.02359C16.9464 4.97517 16.927 4.92916 16.8931 4.89527C16.8592 4.86138 16.8132 4.84201 16.7648 4.84201C16.536 4.84201 16.1463 4.84201 15.9175 4.84201C15.8691 4.84201 15.8231 4.86138 15.7892 4.89527C15.7553 4.92916 15.7359 4.97517 15.7359 5.02359C15.7359 5.25237 15.7359 5.64215 15.7359 5.87093C15.7359 5.91935 15.7553 5.96536 15.7892 5.99925C15.8231 6.03314 15.8691 6.05251 15.9175 6.05251C16.1463 6.05251 16.536 6.05251 16.7648 6.05251C16.8132 6.05251 16.8592 6.03314 16.8931 5.99925C16.927 5.96536 16.9464 5.91935 16.9464 5.87093V5.02359Z" fill="#999999"/>
<path fill-rule="evenodd" clip-rule="evenodd" d="M16.9464 7.44458C16.9464 7.39616 16.927 7.35015 16.8931 7.31626C16.8592 7.28237 16.8132 7.263 16.7648 7.263C16.536 7.263 16.1463 7.263 15.9175 7.263C15.8691 7.263 15.8231 7.28237 15.7892 7.31626C15.7553 7.35015 15.7359 7.39616 15.7359 7.44458C15.7359 7.67336 15.7359 8.06314 15.7359 8.29192C15.7359 8.34034 15.7553 8.38635 15.7892 8.42024C15.8231 8.45413 15.8691 8.4735 15.9175 8.4735C16.1463 8.4735 16.536 8.4735 16.7648 8.4735C16.8132 8.4735 16.8592 8.45413 16.8931 8.42024C16.927 8.38635 16.9464 8.34034 16.9464 8.29192V7.44458Z" fill="#999999"/>
<path fill-rule="evenodd" clip-rule="evenodd" d="M20.5779 15.3128C20.5779 15.2644 20.5586 15.2184 20.5247 15.1845C20.4908 15.1506 20.4448 15.1313 20.3964 15.1313C20.1676 15.1313 19.7778 15.1313 19.549 15.1313C19.5006 15.1313 19.4546 15.1506 19.4207 15.1845C19.3868 15.2184 19.3674 15.2644 19.3674 15.3128C19.3674 15.5416 19.3674 15.9314 19.3674 16.1602C19.3674 16.2086 19.3868 16.2546 19.4207 16.2885C19.4546 16.3224 19.5006 16.3418 19.549 16.3418C19.7778 16.3418 20.1676 16.3418 20.3964 16.3418C20.4448 16.3418 20.4908 16.3224 20.5247 16.2885C20.5586 16.2546 20.5779 16.2086 20.5779 16.1602V15.3128Z" fill="#999999"/>
<path fill-rule="evenodd" clip-rule="evenodd" d="M8.47289 15.3128C8.47289 15.2644 8.45352 15.2184 8.41963 15.1845C8.38574 15.1506 8.33973 15.1313 8.29131 15.1313C8.06253 15.1313 7.67275 15.1313 7.44397 15.1313C7.39555 15.1313 7.34954 15.1506 7.31565 15.1845C7.28176 15.2184 7.26239 15.2644 7.26239 15.3128C7.26239 15.5416 7.26239 15.9314 7.26239 16.1602C7.26239 16.2086 7.28176 16.2546 7.31565 16.2885C7.34954 16.3224 7.39555 16.3418 7.44397 16.3418C7.67275 16.3418 8.06253 16.3418 8.29131 16.3418C8.33973 16.3418 8.38574 16.3224 8.41963 16.2885C8.45352 16.2546 8.47289 16.2086 8.47289 16.1602V15.3128Z" fill="#999999"/>
<path fill-rule="evenodd" clip-rule="evenodd" d="M20.5779 17.7338C20.5779 17.6854 20.5586 17.6394 20.5247 17.6055C20.4908 17.5716 20.4448 17.5523 20.3964 17.5523C20.1676 17.5523 19.7778 17.5523 19.549 17.5523C19.5006 17.5523 19.4546 17.5716 19.4207 17.6055C19.3868 17.6394 19.3674 17.6854 19.3674 17.7338C19.3674 17.9626 19.3674 18.3524 19.3674 18.5812C19.3674 18.6296 19.3868 18.6756 19.4207 18.7095C19.4546 18.7434 19.5006 18.7628 19.549 18.7628C19.7778 18.7628 20.1676 18.7628 20.3964 18.7628C20.4448 18.7628 20.4908 18.7434 20.5247 18.7095C20.5586 18.6756 20.5779 18.6296 20.5779 18.5812V17.7338Z" fill="#999999"/>
<path fill-rule="evenodd" clip-rule="evenodd" d="M18.1569 17.7338C18.1569 17.6854 18.1375 17.6394 18.1037 17.6055C18.0698 17.5716 18.0238 17.5523 17.9753 17.5523C17.7466 17.5523 17.3568 17.5523 17.128 17.5523C17.0796 17.5523 17.0336 17.5716 16.9997 17.6055C16.9658 17.6394 16.9464 17.6854 16.9464 17.7338C16.9464 17.9626 16.9464 18.3524 16.9464 18.5812C16.9464 18.6296 16.9658 18.6756 16.9997 18.7095C17.0336 18.7434 17.0796 18.7628 17.128 18.7628C17.3568 18.7628 17.7466 18.7628 17.9753 18.7628C18.0238 18.7628 18.0698 18.7434 18.1037 18.7095C18.1375 18.6756 18.1569 18.6296 18.1569 18.5812V17.7338Z" fill="#999999"/>
<path fill-rule="evenodd" clip-rule="evenodd" d="M20.5779 20.1548C20.5779 20.1064 20.5586 20.0604 20.5247 20.0265C20.4908 19.9926 20.4448 19.9733 20.3964 19.9733C20.1676 19.9733 19.7778 19.9733 19.549 19.9733C19.5006 19.9733 19.4546 19.9926 19.4207 20.0265C19.3868 20.0604 19.3674 20.1064 19.3674 20.1548C19.3674 20.3836 19.3674 20.7734 19.3674 21.0022C19.3674 21.0506 19.3868 21.0966 19.4207 21.1305C19.4546 21.1644 19.5006 21.1838 19.549 21.1838C19.7778 21.1838 20.1676 21.1838 20.3964 21.1838C20.4448 21.1838 20.4908 21.1644 20.5247 21.1305C20.5586 21.0966 20.5779 21.0506 20.5779 21.0022V20.1548Z" fill="#999999"/>
<path fill-rule="evenodd" clip-rule="evenodd" d="M20.5779 22.5758C20.5779 22.5274 20.5586 22.4814 20.5247 22.4475C20.4908 22.4136 20.4448 22.3943 20.3964 22.3943C20.1676 22.3943 19.7778 22.3943 19.549 22.3943C19.5006 22.3943 19.4546 22.4136 19.4207 22.4475C19.3868 22.4814 19.3674 22.5274 19.3674 22.5758C19.3674 22.8046 19.3674 23.1944 19.3674 23.4232C19.3674 23.4716 19.3868 23.5176 19.4207 23.5515C19.4546 23.5854 19.5006 23.6048 19.549 23.6048C19.7778 23.6048 20.1676 23.6048 20.3964 23.6048C20.4448 23.6048 20.4908 23.5854 20.5247 23.5515C20.5586 23.5176 20.5779 23.4716 20.5779 23.4232V22.5758Z" fill="#999999"/>
<path fill-rule="evenodd" clip-rule="evenodd" d="M18.1569 20.1548C18.1569 20.1064 18.1375 20.0604 18.1037 20.0265C18.0698 19.9926 18.0238 19.9733 17.9753 19.9733C17.7466 19.9733 17.3568 19.9733 17.128 19.9733C17.0796 19.9733 17.0336 19.9926 16.9997 20.0265C16.9658 20.0604 16.9464 20.1064 16.9464 20.1548C16.9464 20.3836 16.9464 20.7734 16.9464 21.0022C16.9464 21.0506 16.9658 21.0966 16.9997 21.1305C17.0336 21.1644 17.0796 21.1838 17.128 21.1838C17.3568 21.1838 17.7466 21.1838 17.9753 21.1838C18.0238 21.1838 18.0698 21.1644 18.1037 21.1305C18.1375 21.0966 18.1569 21.0506 18.1569 21.0022V20.1548Z" fill="#999999"/>
<path fill-rule="evenodd" clip-rule="evenodd" d="M18.1569 22.5758C18.1569 22.5274 18.1375 22.4814 18.1037 22.4475C18.0698 22.4136 18.0238 22.3943 17.9753 22.3943C17.7466 22.3943 17.3568 22.3943 17.128 22.3943C17.0796 22.3943 17.0336 22.4136 16.9997 22.4475C16.9658 22.4814 16.9464 22.5274 16.9464 22.5758C16.9464 22.8046 16.9464 23.1944 16.9464 23.4232C16.9464 23.4716 16.9658 23.5176 16.9997 23.5515C17.0336 23.5854 17.0796 23.6048 17.128 23.6048C17.3568 23.6048 17.7466 23.6048 17.9753 23.6048C18.0238 23.6048 18.0698 23.5854 18.1037 23.5515C18.1375 23.5176 18.1569 23.4716 18.1569 23.4232V22.5758Z" fill="#999999"/>
<path fill-rule="evenodd" clip-rule="evenodd" d="M15.7359 20.1548C15.7359 20.1064 15.7165 20.0604 15.6826 20.0265C15.6487 19.9926 15.6027 19.9733 15.5543 19.9733C15.3255 19.9733 14.9358 19.9733 14.707 19.9733C14.6585 19.9733 14.6125 19.9926 14.5787 20.0265C14.5448 20.0604 14.5254 20.1064 14.5254 20.1548C14.5254 20.3836 14.5254 20.7734 14.5254 21.0022C14.5254 21.0506 14.5448 21.0966 14.5787 21.1305C14.6125 21.1644 14.6585 21.1838 14.707 21.1838C14.9358 21.1838 15.3255 21.1838 15.5543 21.1838C15.6027 21.1838 15.6487 21.1644 15.6826 21.1305C15.7165 21.0966 15.7359 21.0506 15.7359 21.0022V20.1548Z" fill="#999999"/>
<path fill-rule="evenodd" clip-rule="evenodd" d="M15.7359 22.5758C15.7359 22.5274 15.7165 22.4814 15.6826 22.4475C15.6487 22.4136 15.6027 22.3943 15.5543 22.3943C15.3255 22.3943 14.9358 22.3943 14.707 22.3943C14.6585 22.3943 14.6125 22.4136 14.5787 22.4475C14.5448 22.4814 14.5254 22.5274 14.5254 22.5758C14.5254 22.8046 14.5254 23.1944 14.5254 23.4232C14.5254 23.4716 14.5448 23.5176 14.5787 23.5515C14.6125 23.5854 14.6585 23.6048 14.707 23.6048C14.9358 23.6048 15.3255 23.6048 15.5543 23.6048C15.6027 23.6048 15.6487 23.5854 15.6826 23.5515C15.7165 23.5176 15.7359 23.4716 15.7359 23.4232V22.5758Z" fill="#999999"/>
<path fill-rule="evenodd" clip-rule="evenodd" d="M13.3149 20.1548C13.3149 20.1064 13.2956 20.0604 13.2617 20.0265C13.2278 19.9926 13.1818 19.9733 13.1334 19.9733C12.9046 19.9733 12.5148 19.9733 12.286 19.9733C12.2376 19.9733 12.1916 19.9926 12.1577 20.0265C12.1238 20.0604 12.1044 20.1064 12.1044 20.1548C12.1044 20.3836 12.1044 20.7734 12.1044 21.0022C12.1044 21.0506 12.1238 21.0966 12.1577 21.1305C12.1916 21.1644 12.2376 21.1838 12.286 21.1838C12.5148 21.1838 12.9046 21.1838 13.1334 21.1838C13.1818 21.1838 13.2278 21.1644 13.2617 21.1305C13.2956 21.0966 13.3149 21.0506 13.3149 21.0022V20.1548Z" fill="#999999"/>
<path fill-rule="evenodd" clip-rule="evenodd" d="M13.3149 22.5758C13.3149 22.5274 13.2956 22.4814 13.2617 22.4475C13.2278 22.4136 13.1818 22.3943 13.1334 22.3943C12.9046 22.3943 12.5148 22.3943 12.286 22.3943C12.2376 22.3943 12.1916 22.4136 12.1577 22.4475C12.1238 22.4814 12.1044 22.5274 12.1044 22.5758C12.1044 22.8046 12.1044 23.1944 12.1044 23.4232C12.1044 23.4716 12.1238 23.5176 12.1577 23.5515C12.1916 23.5854 12.2376 23.6048 12.286 23.6048C12.5148 23.6048 12.9046 23.6048 13.1334 23.6048C13.1818 23.6048 13.2278 23.5854 13.2617 23.5515C13.2956 23.5176 13.3149 23.4716 13.3149 23.4232V22.5758Z" fill="#999999"/>
</svg>
