<svg width="19" height="20" viewBox="0 0 19 20" fill="none" xmlns="http://www.w3.org/2000/svg">
<path fill-rule="evenodd" clip-rule="evenodd" d="M1.7 9.75613C1.7 5.72926 4.90116 2.46483 8.85 2.46483C12.7988 2.46483 16 5.72926 16 9.75613C16 13.783 12.7988 17.0474 8.85 17.0474C4.90116 17.0474 1.7 13.783 1.7 9.75613ZM8.85 0.731232C3.96228 0.731232 0 4.77182 0 9.75613C0 14.7404 3.96228 18.781 8.85 18.781C9.58736 18.781 10.3037 18.6891 10.9885 18.5158C13.153 17.9681 15.6857 17.9527 17.249 19.5469C17.5809 19.8854 18.1191 19.8854 18.451 19.5469C18.783 19.2084 18.783 18.6596 18.451 18.3211C16.8718 16.7107 16.8851 14.1693 17.4292 11.9804C17.606 11.2689 17.7 10.5237 17.7 9.75613C17.7 4.77182 13.7377 0.731232 8.85 0.731232Z" fill="#8E9BB7"/>
</svg>
