<svg width="17" height="21" viewBox="0 0 17 21" fill="none" xmlns="http://www.w3.org/2000/svg">
<path d="M1.184 20.196C0.866667 20.196 0.605333 20.112 0.4 19.944C0.213333 19.776 0.101333 19.5707 0.0640001 19.328C0.0453334 19.0853 0.138667 18.8427 0.344 18.6L7.12 9.472V10.34L0.736 1.716C0.530667 1.436 0.437333 1.17467 0.456 0.931998C0.474667 0.689333 0.577333 0.484 0.764 0.316C0.969333 0.148 1.212 0.0639997 1.492 0.0639997C1.75333 0.0639997 1.97733 0.119999 2.164 0.231999C2.35067 0.343999 2.54667 0.539999 2.752 0.819998L8.492 8.688H7.764L13.476 0.819998C13.6627 0.539999 13.8493 0.343999 14.036 0.231999C14.2227 0.119999 14.4467 0.0639997 14.708 0.0639997C15.0067 0.0639997 15.2493 0.148 15.436 0.316C15.6413 0.465332 15.7533 0.670665 15.772 0.931998C15.7907 1.17467 15.6973 1.436 15.492 1.716L9.108 10.34V9.472L15.884 18.6C16.0707 18.8427 16.1453 19.0853 16.108 19.328C16.0893 19.5707 15.9867 19.776 15.8 19.944C15.6133 20.112 15.3613 20.196 15.044 20.196C14.8013 20.196 14.5773 20.1307 14.372 20C14.1853 19.888 13.9893 19.7013 13.784 19.44L7.652 11.068H8.548L2.416 19.44C2.22933 19.7013 2.03333 19.888 1.828 20C1.62267 20.1307 1.408 20.196 1.184 20.196Z" fill="#0062AE"/>
</svg>
